# Blender v2.92.0 OBJ File: 'letters tangerine.blend'
# www.blender.org
mtllib apostrophe.mtl
o apostrophe.001_Text.116
v 0.053813 0.314739 -0.049988
v 0.015076 0.345807 -0.049988
v 0.054100 0.314416 -0.049988
v 0.053813 0.314739 0.049988
v 0.015076 0.345807 0.049988
v 0.054100 0.314416 0.049988
v 0.054328 0.314079 0.049988
v 0.054497 0.313728 0.049988
v 0.054328 0.314079 -0.049988
v 0.054497 0.313728 -0.049988
v 0.054605 0.313365 -0.049988
v 0.054655 0.312988 -0.049988
v 0.054605 0.313365 0.049988
v 0.054655 0.312988 0.049988
v 0.054646 0.312599 0.049988
v 0.054576 0.312195 0.049988
v 0.054646 0.312599 -0.049988
v 0.054576 0.312195 -0.049988
v 0.054447 0.311779 -0.049988
v 0.054259 0.311350 -0.049988
v 0.054447 0.311779 0.049988
v 0.054259 0.311350 0.049988
v 0.054011 0.310907 0.049988
v 0.053704 0.310451 0.049988
v 0.054011 0.310907 -0.049988
v 0.053704 0.310451 -0.049988
v 0.053337 0.309982 -0.049988
v 0.052924 0.309519 -0.049988
v 0.053337 0.309982 0.049988
v 0.052924 0.309519 0.049988
v 0.052478 0.309083 0.049988
v 0.051999 0.308674 0.049988
v 0.052478 0.309083 -0.049988
v 0.051999 0.308674 -0.049988
v 0.051487 0.308291 -0.049988
v 0.050941 0.307934 -0.049988
v 0.051487 0.308291 0.049988
v 0.050941 0.307934 0.049988
v 0.050364 0.307603 0.049988
v 0.049752 0.307299 0.049988
v 0.050364 0.307603 -0.049988
v 0.049752 0.307299 -0.049988
v 0.049108 0.307022 -0.049988
v 0.048430 0.306771 -0.049988
v 0.049108 0.307022 0.049988
v 0.048430 0.306771 0.049988
v 0.047720 0.306546 0.049988
v 0.046976 0.306348 0.049988
v 0.047720 0.306546 -0.049988
v 0.046976 0.306348 -0.049988
v 0.046201 0.306176 -0.049988
v 0.038166 0.308846 -0.049988
v 0.046201 0.306176 0.049988
v 0.038166 0.308846 0.049988
v 0.029920 0.311779 0.049988
v 0.021462 0.314977 0.049988
v 0.029920 0.311779 -0.049988
v 0.021462 0.314977 -0.049988
v 0.012794 0.318440 -0.049988
v -0.005178 0.326157 -0.049988
v 0.012794 0.318440 0.049988
v -0.005178 0.326157 0.049988
v -0.014138 0.330280 0.049988
v -0.022622 0.334403 0.049988
v -0.014138 0.330280 -0.049988
v -0.022622 0.334403 -0.049988
v -0.030630 0.338527 -0.049988
v -0.038163 0.342650 -0.049988
v -0.030630 0.338527 0.049988
v -0.038163 0.342650 0.049988
v -0.045219 0.346773 0.049988
v -0.051801 0.350895 0.049988
v -0.045219 0.346773 -0.049988
v -0.051801 0.350895 -0.049988
v -0.052673 0.351239 -0.049988
v -0.053387 0.351635 -0.049988
v -0.052673 0.351239 0.049988
v -0.053387 0.351635 0.049988
v -0.053942 0.352085 0.049988
v -0.054338 0.352587 0.049988
v -0.053942 0.352085 -0.049988
v -0.054338 0.352587 -0.049988
v -0.054576 0.353142 -0.049988
v -0.054655 0.353750 -0.049988
v -0.054576 0.353142 0.049988
v -0.054655 0.353750 0.049988
v -0.054576 0.354410 0.049988
v -0.054338 0.355124 0.049988
v -0.054576 0.354410 -0.049988
v -0.054338 0.355124 -0.049988
v -0.053942 0.355891 -0.049988
v -0.053387 0.356710 -0.049988
v -0.053942 0.355891 0.049988
v -0.053387 0.356710 0.049988
v -0.052673 0.357582 0.049988
v -0.051801 0.358507 0.049988
v -0.052673 0.357582 -0.049988
v -0.051801 0.358507 -0.049988
v -0.050341 0.359749 -0.049988
v -0.048815 0.360939 -0.049988
v -0.050341 0.359749 0.049988
v -0.048815 0.360939 0.049988
v -0.047222 0.362075 0.049988
v -0.045564 0.363159 0.049988
v -0.047222 0.362075 -0.049988
v -0.045564 0.363159 -0.049988
v -0.043839 0.364189 -0.049988
v -0.042048 0.365167 -0.049988
v -0.043839 0.364189 0.049988
v -0.042048 0.365167 0.049988
v -0.040192 0.366093 0.049988
v -0.038269 0.366965 0.049988
v -0.040192 0.366093 -0.049988
v -0.038269 0.366965 -0.049988
v -0.036281 0.367784 -0.049988
v -0.034225 0.368551 -0.049988
v -0.036281 0.367784 0.049988
v -0.034225 0.368551 0.049988
v -0.032104 0.369264 0.049988
v -0.029917 0.369925 0.049988
v -0.032104 0.369264 -0.049988
v -0.029917 0.369925 -0.049988
v -0.027769 0.370519 -0.049988
v -0.025767 0.371035 -0.049988
v -0.027769 0.370519 0.049988
v -0.025767 0.371035 0.049988
v -0.023911 0.371471 0.049988
v -0.022200 0.371828 0.049988
v -0.023911 0.371471 -0.049988
v -0.022200 0.371828 -0.049988
v -0.020634 0.372105 -0.049988
v -0.019213 0.372303 -0.049988
v -0.020634 0.372105 0.049988
v -0.019213 0.372303 0.049988
v -0.017938 0.372422 0.049988
v -0.016808 0.372462 0.049988
v -0.017938 0.372422 -0.049988
v -0.016808 0.372462 -0.049988
v -0.015823 0.372422 -0.049988
v -0.014984 0.372303 -0.049988
v -0.015823 0.372422 0.049988
v -0.014984 0.372303 0.049988
v -0.014290 0.372105 0.049988
v -0.013741 0.371828 0.049988
v -0.014290 0.372105 -0.049988
v -0.013741 0.371828 -0.049988
v -0.006755 0.365048 -0.049988
v 0.003579 0.355639 -0.049988
v -0.006755 0.365048 0.049988
v 0.003579 0.355639 0.049988
vt 0.887850 0.000000
vt 0.000000 0.000000
vt 0.000000 0.000000
vt 0.850467 0.000000
vt 0.336449 0.000000
vt 0.009346 0.000000
vt 0.009346 0.000000
vt 0.336449 0.000000
vt 0.887850 0.000000
vt 0.850467 0.000000
vt 0.018692 0.000000
vt 0.018692 0.000000
vt 0.028037 0.000000
vt 0.028037 0.000000
vt 0.037383 0.000000
vt 0.037383 0.000000
vt 0.046729 0.000000
vt 0.046729 0.000000
vt 0.056075 0.000000
vt 0.056075 0.000000
vt 0.065421 0.000000
vt 0.065421 0.000000
vt 0.074766 0.000000
vt 0.074766 0.000000
vt 0.084112 0.000000
vt 0.084112 0.000000
vt 0.093458 0.000000
vt 0.093458 0.000000
vt 0.102804 0.000000
vt 0.102804 0.000000
vt 0.112150 0.000000
vt 0.112150 0.000000
vt 0.121495 0.000000
vt 0.121495 0.000000
vt 0.130841 0.000000
vt 0.130841 0.000000
vt 0.140187 0.000000
vt 0.140187 0.000000
vt 0.149533 0.000000
vt 0.149533 0.000000
vt 0.158879 0.000000
vt 0.158879 0.000000
vt 0.168224 0.000000
vt 0.168224 0.000000
vt 0.177570 0.000000
vt 0.177570 0.000000
vt 0.186916 0.000000
vt 0.186916 0.000000
vt 0.196262 0.000000
vt 0.196262 0.000000
vt 0.205607 0.000000
vt 0.205607 0.000000
vt 0.214953 0.000000
vt 0.214953 0.000000
vt 0.224299 0.000000
vt 0.224299 0.000000
vt 0.242991 0.000000
vt 0.242991 0.000000
vt 0.261682 0.000000
vt 0.261682 0.000000
vt 0.280374 0.000000
vt 0.280374 0.000000
vt 0.299065 0.000000
vt 0.299065 0.000000
vt 0.355140 0.000000
vt 0.355140 0.000000
vt 0.373832 0.000000
vt 0.373832 0.000000
vt 0.392523 0.000000
vt 0.392523 0.000000
vt 0.411215 0.000000
vt 0.411215 0.000000
vt 0.429907 0.000000
vt 0.429907 0.000000
vt 0.448598 0.000000
vt 0.448598 0.000000
vt 0.457944 0.000000
vt 0.457944 0.000000
vt 0.467290 0.000000
vt 0.467290 0.000000
vt 0.476636 0.000000
vt 0.476636 0.000000
vt 0.485981 0.000000
vt 0.485981 0.000000
vt 0.495327 0.000000
vt 0.495327 0.000000
vt 0.504673 0.000000
vt 0.504673 0.000000
vt 0.514019 0.000000
vt 0.514019 0.000000
vt 0.523364 0.000000
vt 0.523364 0.000000
vt 0.532710 0.000000
vt 0.532710 0.000000
vt 0.542056 0.000000
vt 0.542056 0.000000
vt 0.551402 0.000000
vt 0.551402 0.000000
vt 0.560748 0.000000
vt 0.560748 0.000000
vt 0.570093 0.000000
vt 0.570093 0.000000
vt 0.579439 0.000000
vt 0.579439 0.000000
vt 0.588785 0.000000
vt 0.588785 0.000000
vt 0.598131 0.000000
vt 0.598131 0.000000
vt 0.607477 0.000000
vt 0.607477 0.000000
vt 0.616822 0.000000
vt 0.616822 0.000000
vt 0.626168 0.000000
vt 0.626168 0.000000
vt 0.635514 0.000000
vt 0.635514 0.000000
vt 0.644860 0.000000
vt 0.644860 0.000000
vt 0.654206 0.000000
vt 0.654206 0.000000
vt 0.663551 0.000000
vt 0.663551 0.000000
vt 0.672897 0.000000
vt 0.672897 0.000000
vt 0.682243 0.000000
vt 0.682243 0.000000
vt 0.691589 0.000000
vt 0.691589 0.000000
vt 0.700935 0.000000
vt 0.700935 0.000000
vt 0.710280 0.000000
vt 0.710280 0.000000
vt 0.719626 0.000000
vt 0.719626 0.000000
vt 0.728972 0.000000
vt 0.728972 0.000000
vt 0.738318 0.000000
vt 0.738318 0.000000
vt 0.747664 0.000000
vt 0.747664 0.000000
vt 0.757009 0.000000
vt 0.757009 0.000000
vt 0.766355 0.000000
vt 0.766355 0.000000
vt 0.775701 0.000000
vt 0.775701 0.000000
vt 0.785047 0.000000
vt 0.785047 0.000000
vt 0.813084 0.000000
vt 0.813084 0.000000
vn 0.6379 0.7701 0.0000
vn 0.6894 0.7244 0.0000
vn -0.0000 0.0000 -1.0000
vn 0.7899 0.6132 0.0000
vn 0.0000 -0.0000 1.0000
vn 0.8668 0.4986 0.0000
vn 0.9324 0.3615 0.0000
vn 0.9779 0.2093 0.0000
vn 0.9986 0.0532 0.0000
vn 0.9952 -0.0976 0.0000
vn 0.9724 -0.2333 0.0000
vn 0.9372 -0.3487 0.0000
vn 0.8954 -0.4453 0.0000
vn 0.8517 -0.5241 0.0000
vn 0.8090 -0.5878 0.0000
vn 0.8090 -0.5879 0.0000
vn 0.7672 -0.6415 0.0000
vn 0.7228 -0.6910 0.0000
vn 0.6748 -0.7380 0.0000
vn 0.6249 -0.7807 0.0000
vn 0.5736 -0.8192 0.0000
vn 0.5222 -0.8528 0.0000
vn 0.4710 -0.8821 0.0000
vn 0.4205 -0.9073 0.0000
vn 0.3716 -0.9284 0.0000
vn 0.3246 -0.9458 0.0000
vn 0.2795 -0.9602 0.0000
vn 0.2370 -0.9715 0.0000
vn 0.2165 -0.9763 0.0000
vn -0.3153 -0.9490 0.0000
vn -0.3253 -0.9456 0.0000
vn -0.3445 -0.9388 0.0000
vn -0.3623 -0.9321 0.0000
vn -0.3828 -0.9238 0.0000
vn -0.4063 -0.9137 0.0000
vn -0.4276 -0.9040 0.0000
vn -0.4475 -0.8943 0.0000
vn -0.4690 -0.8832 0.0000
vn -0.4924 -0.8704 0.0000
vn -0.5177 -0.8555 0.0000
vn -0.4505 -0.8928 0.0000
vn -0.4270 -0.9042 0.0000
vn -0.5596 -0.8287 0.0000
vn -0.5597 -0.8287 0.0000
vn -0.7113 -0.7029 0.0000
vn -0.8595 -0.5111 0.0000
vn -0.9646 -0.2637 0.0000
vn -1.0000 -0.0051 0.0000
vn -0.9758 0.2185 0.0000
vn -0.9213 0.3889 0.0000
vn -0.8595 0.5112 0.0000
vn -0.8018 0.5976 0.0000
vn -0.7512 0.6601 0.0000
vn -0.6887 0.7250 0.0000
vn -0.6315 0.7753 0.0000
vn -0.5980 0.8015 0.0000
vn -0.5641 0.8257 0.0000
vn -0.5301 0.8479 0.0000
vn -0.4963 0.8682 0.0000
vn -0.4627 0.8865 0.0000
vn -0.4296 0.9030 0.0000
vn -0.3971 0.9178 0.0000
vn -0.3653 0.9309 0.0000
vn -0.3342 0.9425 0.0000
vn -0.3040 0.9527 0.0000
vn -0.2780 0.9606 0.0000
vn -0.2581 0.9661 0.0000
vn -0.2390 0.9710 0.0000
vn -0.2164 0.9763 0.0000
vn -0.1893 0.9819 0.0000
vn -0.1563 0.9877 0.0000
vn -0.1155 0.9933 0.0000
vn -0.0640 0.9980 0.0000
vn 0.0026 1.0000 0.0000
vn 0.0904 0.9959 0.0000
vn 0.2079 0.9782 0.0000
vn 0.3646 0.9311 0.0000
vn 0.5806 0.8142 0.0000
vn 0.6849 0.7286 0.0000
vn 0.6617 0.7498 0.0000
vn -0.0001 0.0000 -1.0000
vn 0.0002 0.0000 -1.0000
vn -0.0002 0.0000 1.0000
usemtl Material.001
s 1
f 2/1/1 4/2/2 1/3/2
f 148/4/3 2/1/3 60/5/3
f 1/3/2 6/6/4 3/7/4
f 62/8/5 5/9/5 150/10/5
f 3/7/4 7/11/6 9/12/6
f 9/12/6 8/13/7 10/14/7
f 10/14/7 13/15/8 11/16/8
f 11/16/8 14/17/9 12/18/9
f 12/18/9 15/19/10 17/20/10
f 17/20/10 16/21/11 18/22/11
f 18/22/11 21/23/12 19/24/12
f 19/24/12 22/25/13 20/26/13
f 20/26/13 23/27/14 25/28/14
f 25/28/14 24/29/15 26/30/16
f 26/30/16 29/31/17 27/32/17
f 27/32/17 30/33/18 28/34/18
f 28/34/18 31/35/19 33/36/19
f 33/36/19 32/37/20 34/38/20
f 34/38/20 37/39/21 35/40/21
f 35/40/21 38/41/22 36/42/22
f 36/42/22 39/43/23 41/44/23
f 41/44/23 40/45/24 42/46/24
f 42/46/24 45/47/25 43/48/25
f 43/48/25 46/49/26 44/50/26
f 44/50/26 47/51/27 49/52/27
f 49/52/27 48/53/28 50/54/28
f 50/54/28 53/55/29 51/56/29
f 51/56/30 54/57/31 52/58/31
f 52/58/31 55/59/32 57/60/32
f 57/60/32 56/61/33 58/62/33
f 58/62/33 61/63/34 59/64/34
f 59/64/34 62/8/35 60/5/35
f 60/5/35 63/65/36 65/66/36
f 65/66/36 64/67/37 66/68/37
f 66/68/37 69/69/38 67/70/38
f 67/70/38 70/71/39 68/72/39
f 68/72/39 71/73/40 73/74/40
f 73/74/40 72/75/41 74/76/41
f 74/76/41 77/77/42 75/78/42
f 75/78/42 78/79/43 76/80/44
f 76/80/44 79/81/45 81/82/45
f 81/82/45 80/83/46 82/84/46
f 82/84/46 85/85/47 83/86/47
f 83/86/47 86/87/48 84/88/48
f 84/88/48 87/89/49 89/90/49
f 89/90/49 88/91/50 90/92/50
f 90/92/50 93/93/51 91/94/51
f 91/94/51 94/95/52 92/96/52
f 92/96/52 95/97/53 97/98/53
f 97/98/53 96/99/54 98/100/54
f 98/100/54 101/101/55 99/102/55
f 99/102/55 102/103/56 100/104/56
f 100/104/56 103/105/57 105/106/57
f 105/106/57 104/107/58 106/108/58
f 106/108/58 109/109/59 107/110/59
f 107/110/59 110/111/60 108/112/60
f 108/112/60 111/113/61 113/114/61
f 113/114/61 112/115/62 114/116/62
f 114/116/62 117/117/63 115/118/63
f 115/118/63 118/119/64 116/120/64
f 116/120/64 119/121/65 121/122/65
f 121/122/65 120/123/66 122/124/66
f 122/124/66 125/125/67 123/126/67
f 123/126/67 126/127/68 124/128/68
f 124/128/68 127/129/69 129/130/69
f 129/130/69 128/131/70 130/132/70
f 130/132/70 133/133/71 131/134/71
f 131/134/71 134/135/72 132/136/72
f 132/136/72 135/137/73 137/138/73
f 137/138/73 136/139/74 138/140/74
f 138/140/74 141/141/75 139/142/75
f 139/142/75 142/143/76 140/144/76
f 140/144/76 143/145/77 145/146/77
f 145/146/77 144/147/78 146/148/78
f 146/148/78 149/149/79 147/150/79
f 147/150/79 150/10/80 148/4/80
f 148/4/80 5/9/1 2/1/1
f 2/1/1 5/9/1 4/2/2
f 2/1/3 1/3/3 57/60/3
f 1/3/3 3/7/3 19/24/3
f 57/60/3 1/3/3 52/58/3
f 3/7/3 9/12/3 12/18/3
f 9/12/3 10/14/81 12/18/3
f 10/14/81 11/16/82 12/18/3
f 12/18/3 17/20/3 3/7/3
f 17/20/3 18/22/3 3/7/3
f 18/22/3 19/24/3 3/7/3
f 19/24/3 20/26/3 1/3/3
f 20/26/3 25/28/3 1/3/3
f 25/28/3 26/30/3 1/3/3
f 26/30/3 27/32/3 1/3/3
f 27/32/3 28/34/3 1/3/3
f 28/34/3 33/36/3 1/3/3
f 33/36/3 34/38/3 1/3/3
f 34/38/3 35/40/3 1/3/3
f 35/40/3 36/42/3 1/3/3
f 36/42/3 41/44/3 1/3/3
f 41/44/3 42/46/3 1/3/3
f 42/46/3 43/48/3 1/3/3
f 43/48/3 44/50/3 1/3/3
f 44/50/3 49/52/3 1/3/3
f 49/52/3 50/54/3 1/3/3
f 50/54/3 51/56/3 52/58/3
f 57/60/3 58/62/3 2/1/3
f 58/62/3 59/64/3 2/1/3
f 59/64/3 60/5/3 2/1/3
f 60/5/3 65/66/3 148/4/3
f 65/66/3 66/68/3 148/4/3
f 66/68/3 67/70/3 147/150/3
f 67/70/3 68/72/3 121/122/3
f 121/122/3 68/72/3 116/120/3
f 68/72/3 73/74/3 108/112/3
f 73/74/3 74/76/3 99/102/3
f 100/104/3 73/74/3 99/102/3
f 74/76/3 75/78/3 91/94/3
f 75/78/3 76/80/3 90/92/3
f 76/80/3 81/82/3 89/90/3
f 81/82/3 82/84/3 84/88/3
f 82/84/3 83/86/3 84/88/3
f 84/88/3 89/90/3 81/82/3
f 89/90/3 90/92/3 76/80/3
f 90/92/3 91/94/3 75/78/3
f 91/94/3 92/96/3 74/76/3
f 92/96/3 97/98/3 74/76/3
f 97/98/3 98/100/3 74/76/3
f 98/100/3 99/102/3 74/76/3
f 100/104/3 105/106/3 73/74/3
f 105/106/3 106/108/3 73/74/3
f 106/108/3 107/110/3 73/74/3
f 107/110/3 108/112/3 73/74/3
f 108/112/3 113/114/3 68/72/3
f 113/114/3 114/116/3 68/72/3
f 114/116/3 115/118/3 68/72/3
f 115/118/3 116/120/3 68/72/3
f 121/122/3 122/124/3 67/70/3
f 122/124/3 123/126/3 67/70/3
f 123/126/3 124/128/3 67/70/3
f 124/128/3 129/130/3 147/150/3
f 129/130/3 130/132/3 147/150/3
f 130/132/3 131/134/3 147/150/3
f 131/134/3 132/136/3 147/150/3
f 132/136/3 137/138/3 147/150/3
f 137/138/3 138/140/3 146/148/3
f 138/140/3 139/142/3 146/148/3
f 139/142/3 140/144/3 146/148/3
f 140/144/3 145/146/3 146/148/3
f 146/148/3 147/150/3 137/138/3
f 147/150/3 148/4/3 66/68/3
f 147/150/3 67/70/3 124/128/3
f 50/54/3 52/58/3 1/3/3
f 1/3/2 4/2/2 6/6/4
f 149/149/5 144/147/5 135/137/5
f 144/147/5 143/145/5 142/143/5
f 135/137/5 144/147/5 136/139/5
f 142/143/5 141/141/5 144/147/5
f 141/141/5 136/139/5 144/147/5
f 135/137/5 134/135/5 149/149/5
f 134/135/5 133/133/5 149/149/5
f 133/133/5 128/131/5 149/149/5
f 128/131/5 127/129/5 149/149/5
f 127/129/5 126/127/5 149/149/5
f 126/127/5 125/125/5 69/69/5
f 125/125/5 120/123/5 69/69/5
f 120/123/5 119/121/5 69/69/5
f 119/121/5 118/119/5 70/71/5
f 118/119/5 117/117/5 70/71/5
f 117/117/5 112/115/5 70/71/5
f 112/115/5 111/113/5 70/71/5
f 111/113/5 110/111/5 70/71/5
f 110/111/5 109/109/5 71/73/5
f 70/71/5 110/111/5 71/73/5
f 109/109/5 104/107/5 71/73/5
f 104/107/5 103/105/5 71/73/5
f 103/105/5 102/103/5 71/73/5
f 102/103/5 101/101/5 71/73/5
f 101/101/5 96/99/5 72/75/5
f 96/99/5 95/97/5 72/75/5
f 95/97/5 94/95/5 72/75/5
f 94/95/5 93/93/5 72/75/5
f 93/93/5 88/91/5 77/77/5
f 88/91/5 87/89/5 78/79/5
f 77/77/5 88/91/5 78/79/5
f 87/89/5 86/87/5 79/81/5
f 86/87/5 85/85/5 79/81/5
f 85/85/5 80/83/5 79/81/5
f 79/81/5 78/79/5 87/89/5
f 72/75/5 71/73/5 101/101/5
f 77/77/5 72/75/5 93/93/5
f 126/127/5 69/69/5 149/149/5
f 70/71/5 69/69/5 119/121/5
f 69/69/5 64/67/5 149/149/5
f 64/67/5 63/65/5 150/10/5
f 149/149/5 64/67/5 150/10/5
f 63/65/5 62/8/5 150/10/5
f 62/8/5 61/63/5 5/9/5
f 61/63/5 56/61/5 5/9/5
f 56/61/5 55/59/5 5/9/5
f 55/59/5 54/57/5 4/2/5
f 54/57/5 53/55/5 48/53/5
f 4/2/5 48/53/5 47/51/5
f 54/57/5 48/53/5 4/2/5
f 47/51/5 46/49/5 4/2/5
f 46/49/5 45/47/5 4/2/5
f 45/47/5 40/45/5 4/2/5
f 40/45/5 39/43/5 4/2/5
f 39/43/5 38/41/5 4/2/5
f 38/41/5 37/39/5 4/2/5
f 37/39/5 32/37/5 4/2/5
f 32/37/5 31/35/5 4/2/5
f 31/35/5 30/33/5 4/2/5
f 30/33/5 29/31/5 4/2/5
f 29/31/5 24/29/5 4/2/5
f 24/29/5 23/27/5 4/2/5
f 23/27/5 22/25/5 4/2/5
f 22/25/5 21/23/5 4/2/5
f 21/23/5 16/21/5 6/6/5
f 16/21/5 15/19/5 7/11/5
f 15/19/5 14/17/5 7/11/5
f 14/17/5 13/15/5 7/11/5
f 13/15/5 8/13/83 7/11/5
f 7/11/5 6/6/5 16/21/5
f 6/6/5 4/2/5 21/23/5
f 4/2/5 5/9/5 55/59/5
f 3/7/4 6/6/4 7/11/6
f 9/12/6 7/11/6 8/13/7
f 10/14/7 8/13/7 13/15/8
f 11/16/8 13/15/8 14/17/9
f 12/18/9 14/17/9 15/19/10
f 17/20/10 15/19/10 16/21/11
f 18/22/11 16/21/11 21/23/12
f 19/24/12 21/23/12 22/25/13
f 20/26/13 22/25/13 23/27/14
f 25/28/14 23/27/14 24/29/15
f 26/30/16 24/29/15 29/31/17
f 27/32/17 29/31/17 30/33/18
f 28/34/18 30/33/18 31/35/19
f 33/36/19 31/35/19 32/37/20
f 34/38/20 32/37/20 37/39/21
f 35/40/21 37/39/21 38/41/22
f 36/42/22 38/41/22 39/43/23
f 41/44/23 39/43/23 40/45/24
f 42/46/24 40/45/24 45/47/25
f 43/48/25 45/47/25 46/49/26
f 44/50/26 46/49/26 47/51/27
f 49/52/27 47/51/27 48/53/28
f 50/54/28 48/53/28 53/55/29
f 51/56/30 53/55/30 54/57/31
f 52/58/31 54/57/31 55/59/32
f 57/60/32 55/59/32 56/61/33
f 58/62/33 56/61/33 61/63/34
f 59/64/34 61/63/34 62/8/35
f 60/5/35 62/8/35 63/65/36
f 65/66/36 63/65/36 64/67/37
f 66/68/37 64/67/37 69/69/38
f 67/70/38 69/69/38 70/71/39
f 68/72/39 70/71/39 71/73/40
f 73/74/40 71/73/40 72/75/41
f 74/76/41 72/75/41 77/77/42
f 75/78/42 77/77/42 78/79/43
f 76/80/44 78/79/43 79/81/45
f 81/82/45 79/81/45 80/83/46
f 82/84/46 80/83/46 85/85/47
f 83/86/47 85/85/47 86/87/48
f 84/88/48 86/87/48 87/89/49
f 89/90/49 87/89/49 88/91/50
f 90/92/50 88/91/50 93/93/51
f 91/94/51 93/93/51 94/95/52
f 92/96/52 94/95/52 95/97/53
f 97/98/53 95/97/53 96/99/54
f 98/100/54 96/99/54 101/101/55
f 99/102/55 101/101/55 102/103/56
f 100/104/56 102/103/56 103/105/57
f 105/106/57 103/105/57 104/107/58
f 106/108/58 104/107/58 109/109/59
f 107/110/59 109/109/59 110/111/60
f 108/112/60 110/111/60 111/113/61
f 113/114/61 111/113/61 112/115/62
f 114/116/62 112/115/62 117/117/63
f 115/118/63 117/117/63 118/119/64
f 116/120/64 118/119/64 119/121/65
f 121/122/65 119/121/65 120/123/66
f 122/124/66 120/123/66 125/125/67
f 123/126/67 125/125/67 126/127/68
f 124/128/68 126/127/68 127/129/69
f 129/130/69 127/129/69 128/131/70
f 130/132/70 128/131/70 133/133/71
f 131/134/71 133/133/71 134/135/72
f 132/136/72 134/135/72 135/137/73
f 137/138/73 135/137/73 136/139/74
f 138/140/74 136/139/74 141/141/75
f 139/142/75 141/141/75 142/143/76
f 140/144/76 142/143/76 143/145/77
f 145/146/77 143/145/77 144/147/78
f 146/148/78 144/147/78 149/149/79
f 147/150/79 149/149/79 150/10/80
f 148/4/80 150/10/80 5/9/1
