# Blender v2.92.0 OBJ File: 'letters tangerine.blend'
# www.blender.org
mtllib caret.mtl
o caret.001_Text.118
v 0.028729 0.399485 -0.049988
v 0.030144 0.401216 -0.049988
v -0.018000 0.335207 -0.049988
v 0.028729 0.399485 0.049988
v 0.030144 0.401216 0.049988
v -0.018000 0.335207 0.049988
v -0.094963 0.234879 0.049988
v -0.095243 0.233944 0.049988
v -0.094963 0.234880 -0.049988
v -0.095243 0.233944 -0.049988
v -0.095451 0.233042 -0.049988
v -0.095587 0.232174 -0.049988
v -0.095451 0.233042 0.049988
v -0.095587 0.232174 0.049988
v -0.095650 0.231338 0.049988
v -0.095640 0.230535 0.049988
v -0.095650 0.231338 -0.049988
v -0.095640 0.230535 -0.049988
v -0.095557 0.229765 -0.049988
v -0.095402 0.229028 -0.049988
v -0.095557 0.229765 0.049988
v -0.095402 0.229028 0.049988
v -0.095174 0.228325 0.049988
v -0.094873 0.227654 0.049988
v -0.095174 0.228325 -0.049988
v -0.094873 0.227654 -0.049988
v -0.094501 0.227016 -0.049988
v -0.094054 0.226412 -0.049988
v -0.094501 0.227016 0.049988
v -0.094054 0.226412 0.049988
v -0.093535 0.225840 0.049988
v -0.092977 0.225322 0.049988
v -0.093535 0.225840 -0.049988
v -0.092977 0.225322 -0.049988
v -0.092412 0.224876 -0.049988
v -0.091841 0.224502 -0.049988
v -0.092412 0.224876 0.049988
v -0.091841 0.224502 0.049988
v -0.091263 0.224202 0.049988
v -0.090678 0.223974 0.049988
v -0.091263 0.224202 -0.049988
v -0.090678 0.223974 -0.049988
v -0.090087 0.223819 -0.049988
v -0.089489 0.223736 -0.049988
v -0.090087 0.223819 0.049988
v -0.089489 0.223736 0.049988
v -0.088884 0.223726 0.049988
v -0.088273 0.223789 0.049988
v -0.088884 0.223726 -0.049988
v -0.088273 0.223789 -0.049988
v -0.087655 0.223924 -0.049988
v -0.087030 0.224132 -0.049988
v -0.087655 0.223924 0.049988
v -0.087030 0.224132 0.049988
v -0.086399 0.224413 0.049988
v -0.027118 0.295774 0.049988
v -0.086399 0.224413 -0.049988
v -0.027118 0.295774 -0.049988
v 0.024923 0.361426 -0.049988
v 0.071546 0.225365 -0.049988
v 0.024923 0.361426 0.049988
v 0.071546 0.225365 0.049988
v 0.072035 0.224922 0.049988
v 0.072550 0.224545 0.049988
v 0.072035 0.224922 -0.049988
v 0.072550 0.224545 -0.049988
v 0.073092 0.224235 -0.049988
v 0.073660 0.223990 -0.049988
v 0.073092 0.224235 0.049988
v 0.073660 0.223990 0.049988
v 0.074255 0.223812 0.049988
v 0.074876 0.223700 0.049988
v 0.074255 0.223812 -0.049988
v 0.074876 0.223700 -0.049988
v 0.075523 0.223653 -0.049988
v 0.076198 0.223673 -0.049988
v 0.075523 0.223653 0.049988
v 0.076198 0.223673 0.049988
v 0.076898 0.223759 0.049988
v 0.077624 0.223911 0.049988
v 0.076898 0.223759 -0.049988
v 0.077624 0.223911 -0.049988
v 0.078378 0.224129 -0.049988
v 0.079157 0.224413 -0.049988
v 0.078378 0.224129 0.049988
v 0.079157 0.224413 0.049988
v 0.079947 0.224747 0.049988
v 0.080730 0.225113 0.049988
v 0.079947 0.224747 -0.049988
v 0.080730 0.225113 -0.049988
v 0.081507 0.225513 -0.049988
v 0.082276 0.225946 -0.049988
v 0.081507 0.225513 0.049988
v 0.082276 0.225946 0.049988
v 0.083039 0.226412 0.049988
v 0.083796 0.226911 0.049988
v 0.083039 0.226412 -0.049988
v 0.083796 0.226911 -0.049988
v 0.084545 0.227443 -0.049988
v 0.085288 0.228008 -0.049988
v 0.084545 0.227442 0.049988
v 0.085288 0.228008 0.049988
v 0.086024 0.228605 0.049988
v 0.086755 0.229237 0.049988
v 0.086024 0.228606 -0.049988
v 0.086755 0.229237 -0.049988
v 0.087479 0.229901 -0.049988
v 0.088196 0.230598 -0.049988
v 0.087479 0.229901 0.049988
v 0.088196 0.230598 0.049988
v 0.088894 0.231321 0.049988
v 0.089558 0.232064 0.049988
v 0.088894 0.231321 -0.049988
v 0.089558 0.232065 -0.049988
v 0.090189 0.232828 -0.049988
v 0.090787 0.233611 -0.049988
v 0.090189 0.232828 0.049988
v 0.090787 0.233611 0.049988
v 0.091352 0.234413 0.049988
v 0.091884 0.235236 0.049988
v 0.091352 0.234413 -0.049988
v 0.091884 0.235236 -0.049988
v 0.092382 0.236079 -0.049988
v 0.092848 0.236941 -0.049988
v 0.092382 0.236078 0.049988
v 0.092848 0.236941 0.049988
v 0.093281 0.237823 0.049988
v 0.093680 0.238725 0.049988
v 0.093281 0.237823 -0.049988
v 0.093680 0.238725 -0.049988
v 0.094047 0.239647 -0.049988
v 0.094380 0.240588 -0.049988
v 0.094047 0.239647 0.049988
v 0.094380 0.240588 0.049988
v 0.094677 0.241533 0.049988
v 0.094934 0.242465 0.049988
v 0.094677 0.241533 -0.049988
v 0.094934 0.242465 -0.049988
v 0.095153 0.243383 -0.049988
v 0.095331 0.244288 -0.049988
v 0.095153 0.243383 0.049988
v 0.095331 0.244288 0.049988
v 0.095470 0.245180 0.049988
v 0.095570 0.246059 0.049988
v 0.095470 0.245180 -0.049988
v 0.095570 0.246059 -0.049988
v 0.095629 0.246925 -0.049988
v 0.095649 0.247777 -0.049988
v 0.095629 0.246925 0.049988
v 0.095649 0.247777 0.049988
v 0.095629 0.248616 0.049988
v 0.095570 0.249442 0.049988
v 0.095629 0.248616 -0.049988
v 0.095570 0.249442 -0.049988
v 0.095470 0.250255 -0.049988
v 0.095332 0.251055 -0.049988
v 0.095470 0.250255 0.049988
v 0.095332 0.251055 0.049988
v 0.082130 0.285426 0.049988
v 0.073462 0.309530 0.049988
v 0.082130 0.285426 -0.049988
v 0.073462 0.309530 -0.049988
v 0.043953 0.397582 -0.049988
v 0.042830 0.399630 -0.049988
v 0.043953 0.397582 0.049988
v 0.042830 0.399630 0.049988
v 0.041680 0.401335 0.049988
v 0.040504 0.402696 0.049988
v 0.041680 0.401335 -0.049988
v 0.040504 0.402696 -0.049988
v 0.039302 0.403713 -0.049988
v 0.038073 0.404387 -0.049988
v 0.039302 0.403713 0.049988
v 0.038073 0.404387 0.049988
v 0.036818 0.404718 0.049988
v 0.035536 0.404705 0.049988
v 0.036818 0.404718 -0.049988
v 0.035536 0.404705 -0.049988
v 0.034227 0.404348 -0.049988
v 0.032892 0.403647 -0.049988
v 0.034227 0.404348 0.049988
v 0.032892 0.403647 0.049988
v 0.031531 0.402603 0.049988
v 0.031531 0.402603 -0.049988
vt 0.000000 0.000000
vt 0.004926 0.000000
vt 0.004926 0.000000
vt 0.009852 0.000000
vt 0.049261 0.000000
vt 0.965517 0.000000
vt 0.000000 0.000000
vt 0.014778 0.000000
vt 0.009852 0.000000
vt 0.044335 0.000000
vt 0.886699 0.000000
vt 0.965517 0.000000
vt 0.881773 0.000000
vt 0.886699 0.000000
vt 0.876847 0.000000
vt 0.881773 0.000000
vt 0.871921 0.000000
vt 0.876847 0.000000
vt 0.866995 0.000000
vt 0.871921 0.000000
vt 0.862069 0.000000
vt 0.866995 0.000000
vt 0.857143 0.000000
vt 0.862069 0.000000
vt 0.852217 0.000000
vt 0.857143 0.000000
vt 0.847291 0.000000
vt 0.852217 0.000000
vt 0.842365 0.000000
vt 0.847291 0.000000
vt 0.837438 0.000000
vt 0.842365 0.000000
vt 0.832512 0.000000
vt 0.837438 0.000000
vt 0.827586 0.000000
vt 0.832512 0.000000
vt 0.822660 0.000000
vt 0.827586 0.000000
vt 0.817734 0.000000
vt 0.822660 0.000000
vt 0.812808 0.000000
vt 0.817734 0.000000
vt 0.807882 0.000000
vt 0.812808 0.000000
vt 0.802956 0.000000
vt 0.807882 0.000000
vt 0.798030 0.000000
vt 0.802956 0.000000
vt 0.793103 0.000000
vt 0.798030 0.000000
vt 0.788177 0.000000
vt 0.793103 0.000000
vt 0.783251 0.000000
vt 0.788177 0.000000
vt 0.778325 0.000000
vt 0.783251 0.000000
vt 0.773399 0.000000
vt 0.778325 0.000000
vt 0.768473 0.000000
vt 0.773399 0.000000
vt 0.640394 0.000000
vt 0.768473 0.000000
vt 0.532020 0.000000
vt 0.640394 0.000000
vt 0.413793 0.000000
vt 0.532020 0.000000
vt 0.408867 0.000000
vt 0.413793 0.000000
vt 0.403941 0.000000
vt 0.408867 0.000000
vt 0.399015 0.000000
vt 0.403941 0.000000
vt 0.394089 0.000000
vt 0.399015 0.000000
vt 0.389163 0.000000
vt 0.394089 0.000000
vt 0.384236 0.000000
vt 0.389163 0.000000
vt 0.379310 0.000000
vt 0.384236 0.000000
vt 0.374384 0.000000
vt 0.379310 0.000000
vt 0.369458 0.000000
vt 0.374384 0.000000
vt 0.364532 0.000000
vt 0.369458 0.000000
vt 0.359606 0.000000
vt 0.364532 0.000000
vt 0.354680 0.000000
vt 0.359606 0.000000
vt 0.349754 0.000000
vt 0.354680 0.000000
vt 0.344828 0.000000
vt 0.349754 0.000000
vt 0.339901 0.000000
vt 0.344828 0.000000
vt 0.334975 0.000000
vt 0.339901 0.000000
vt 0.330049 0.000000
vt 0.334975 0.000000
vt 0.325123 0.000000
vt 0.330049 0.000000
vt 0.320197 0.000000
vt 0.325123 0.000000
vt 0.315271 0.000000
vt 0.320197 0.000000
vt 0.310345 0.000000
vt 0.315271 0.000000
vt 0.305419 0.000000
vt 0.310345 0.000000
vt 0.300493 0.000000
vt 0.305419 0.000000
vt 0.295566 0.000000
vt 0.300493 0.000000
vt 0.290640 0.000000
vt 0.295566 0.000000
vt 0.285714 0.000000
vt 0.290640 0.000000
vt 0.280788 0.000000
vt 0.285714 0.000000
vt 0.275862 0.000000
vt 0.280788 0.000000
vt 0.270936 0.000000
vt 0.275862 0.000000
vt 0.266010 0.000000
vt 0.270936 0.000000
vt 0.261084 0.000000
vt 0.266010 0.000000
vt 0.256158 0.000000
vt 0.261084 0.000000
vt 0.251232 0.000000
vt 0.256158 0.000000
vt 0.246305 0.000000
vt 0.251232 0.000000
vt 0.241379 0.000000
vt 0.246305 0.000000
vt 0.236453 0.000000
vt 0.241379 0.000000
vt 0.231527 0.000000
vt 0.236453 0.000000
vt 0.226601 0.000000
vt 0.231527 0.000000
vt 0.221675 0.000000
vt 0.226601 0.000000
vt 0.216749 0.000000
vt 0.221675 0.000000
vt 0.211823 0.000000
vt 0.216749 0.000000
vt 0.206897 0.000000
vt 0.211823 0.000000
vt 0.201970 0.000000
vt 0.206897 0.000000
vt 0.197044 0.000000
vt 0.201970 0.000000
vt 0.192118 0.000000
vt 0.197044 0.000000
vt 0.187192 0.000000
vt 0.192118 0.000000
vt 0.182266 0.000000
vt 0.187192 0.000000
vt 0.177340 0.000000
vt 0.182266 0.000000
vt 0.147783 0.000000
vt 0.177340 0.000000
vt 0.128079 0.000000
vt 0.147783 0.000000
vt 0.059113 0.000000
vt 0.128079 0.000000
vt 0.054187 0.000000
vt 0.059113 0.000000
vt 0.054187 0.000000
vt 0.044335 0.000000
vt 0.049261 0.000000
vt 0.039409 0.000000
vt 0.034483 0.000000
vt 0.039409 0.000000
vt 0.029557 0.000000
vt 0.034483 0.000000
vt 0.024631 0.000000
vt 0.029557 0.000000
vt 0.019704 0.000000
vt 0.024631 0.000000
vt 0.014778 0.000000
vt 0.019704 0.000000
vn -0.7919 0.6106 0.0000
vn -0.7417 0.6707 0.0000
vn 0.0000 0.0000 -1.0000
vn -0.8012 0.5984 0.0000
vn -0.0000 0.0000 1.0000
vn -0.8903 0.4554 0.0000
vn -0.9667 0.2561 0.0000
vn -0.9819 0.1894 0.0000
vn -0.9667 0.2560 0.0000
vn -0.9934 0.1147 0.0000
vn -0.9995 0.0316 0.0000
vn -0.9934 0.1146 0.0000
vn -0.9982 -0.0596 -0.0000
vn -0.9876 -0.1570 -0.0000
vn -0.9662 -0.2576 -0.0000
vn -0.9333 -0.3590 -0.0000
vn -0.8892 -0.4575 -0.0000
vn -0.9334 -0.3589 -0.0000
vn -0.8351 -0.5502 -0.0000
vn -0.7735 -0.6338 -0.0000
vn -0.7110 -0.7032 -0.0000
vn -0.6506 -0.7594 -0.0000
vn -0.7109 -0.7032 -0.0000
vn -0.5841 -0.8117 -0.0000
vn -0.5049 -0.8632 -0.0000
vn -0.4130 -0.9107 -0.0000
vn -0.3091 -0.9510 -0.0000
vn -0.1956 -0.9807 -0.0000
vn -0.0768 -0.9971 -0.0000
vn 0.0428 -0.9991 -0.0000
vn 0.1583 -0.9874 -0.0000
vn 0.2655 -0.9641 -0.0000
vn 0.3617 -0.9323 -0.0000
vn 0.6037 -0.7972 -0.0000
vn 0.7765 -0.6301 0.0000
vn 0.7837 -0.6212 0.0000
vn -0.8350 -0.5503 -0.0000
vn -0.9460 -0.3242 0.0000
vn -0.6315 -0.7753 -0.0000
vn -0.5448 -0.8386 -0.0000
vn -0.6316 -0.7753 -0.0000
vn -0.4470 -0.8945 -0.0000
vn -0.3416 -0.9398 -0.0000
vn -0.2329 -0.9725 -0.0000
vn -0.1248 -0.9922 -0.0000
vn -0.0210 -0.9998 -0.0000
vn 0.0756 -0.9971 -0.0000
vn 0.1633 -0.9866 -0.0000
vn 0.2415 -0.9704 -0.0000
vn 0.3106 -0.9505 -0.0000
vn 0.3658 -0.9307 -0.0000
vn 0.4065 -0.9137 -0.0000
vn 0.4411 -0.8975 -0.0000
vn 0.4741 -0.8805 -0.0000
vn 0.5057 -0.8627 -0.0000
vn 0.5359 -0.8443 -0.0000
vn 0.5647 -0.8253 -0.0000
vn 0.5921 -0.8058 -0.0000
vn 0.6180 -0.7862 -0.0000
vn 0.6422 -0.7666 -0.0000
vn 0.6649 -0.7469 -0.0000
vn 0.6866 -0.7271 -0.0000
vn 0.7084 -0.7058 -0.0000
vn 0.7329 -0.6804 -0.0000
vn 0.7584 -0.6518 -0.0000
vn 0.7828 -0.6223 -0.0000
vn 0.8065 -0.5912 -0.0000
vn 0.8289 -0.5593 -0.0000
vn 0.8502 -0.5264 -0.0000
vn 0.8705 -0.4923 -0.0000
vn 0.8890 -0.4578 -0.0000
vn 0.8704 -0.4923 -0.0000
vn 0.9062 -0.4229 -0.0000
vn 0.9220 -0.3872 -0.0000
vn 0.9361 -0.3518 -0.0000
vn 0.9485 -0.3169 -0.0000
vn 0.9361 -0.3517 -0.0000
vn 0.9591 -0.2830 -0.0000
vn 0.9685 -0.2489 -0.0000
vn 0.9772 -0.2124 -0.0000
vn 0.9848 -0.1738 -0.0000
vn 0.9911 -0.1332 -0.0000
vn 0.9959 -0.0902 -0.0000
vn 0.9989 -0.0458 -0.0000
vn 1.0000 0.0002 0.0000
vn 0.9989 0.0477 0.0000
vn 0.9954 0.0963 0.0000
vn 0.9989 0.0476 0.0000
vn 0.9893 0.1458 0.0000
vn 0.9640 0.2658 0.0000
vn 0.9373 0.3485 0.0000
vn 0.9446 0.3281 0.0000
vn 0.9162 0.4008 0.0000
vn 0.8539 0.5205 0.0000
vn 0.7943 0.6076 0.0000
vn 0.7035 0.7107 0.0000
vn 0.5662 0.8243 0.0000
vn 0.3704 0.9289 0.0000
vn 0.1233 0.9924 0.0000
vn -0.1377 0.9905 0.0000
vn -0.3659 0.9306 0.0000
vn -0.5386 0.8426 0.0000
vn -0.6593 0.7519 0.0000
vn -0.0001 0.0000 -1.0000
vn 0.0002 0.0000 -1.0000
vn -0.0002 0.0000 -1.0000
vn -0.0002 0.0000 1.0000
vn 0.0001 0.0000 1.0000
vn -0.0001 0.0000 1.0000
usemtl Material.001
s 1
f 1/1/1 5/2/2 2/3/2
f 2/3/3 184/4/3 169/5/3
f 3/6/4 4/7/1 1/1/1
f 182/8/5 183/9/5 168/10/5
f 9/11/6 6/12/4 3/6/4
f 10/13/7 7/14/6 9/11/6
f 11/15/8 8/16/9 10/13/7
f 12/17/10 13/18/8 11/15/8
f 17/19/11 14/20/12 12/17/10
f 18/21/13 15/22/11 17/19/11
f 19/23/14 16/24/13 18/21/13
f 20/25/15 21/26/14 19/23/14
f 25/27/16 22/28/15 20/25/15
f 26/29/17 23/30/18 25/27/16
f 27/31/19 24/32/17 26/29/17
f 28/33/20 29/34/19 27/31/19
f 33/35/21 30/36/20 28/33/20
f 34/37/22 31/38/23 33/35/21
f 35/39/24 32/40/22 34/37/22
f 36/41/25 37/42/24 35/39/24
f 41/43/26 38/44/25 36/41/25
f 42/45/27 39/46/26 41/43/26
f 43/47/28 40/48/27 42/45/27
f 44/49/29 45/50/28 43/47/28
f 49/51/30 46/52/29 44/49/29
f 50/53/31 47/54/30 49/51/30
f 51/55/32 48/56/31 50/53/31
f 52/57/33 53/58/32 51/55/32
f 57/59/34 54/60/33 52/57/33
f 58/61/35 55/62/34 57/59/34
f 59/63/36 56/64/35 58/61/35
f 60/65/37 61/66/38 59/63/38
f 65/67/39 62/68/37 60/65/37
f 66/69/40 63/70/41 65/67/39
f 67/71/42 64/72/40 66/69/40
f 68/73/43 69/74/42 67/71/42
f 73/75/44 70/76/43 68/73/43
f 74/77/45 71/78/44 73/75/44
f 75/79/46 72/80/45 74/77/45
f 76/81/47 77/82/46 75/79/46
f 81/83/48 78/84/47 76/81/47
f 82/85/49 79/86/48 81/83/48
f 83/87/50 80/88/49 82/85/49
f 84/89/51 85/90/50 83/87/50
f 89/91/52 86/92/51 84/89/51
f 90/93/53 87/94/52 89/91/52
f 91/95/54 88/96/53 90/93/53
f 92/97/55 93/98/54 91/95/54
f 97/99/56 94/100/55 92/97/55
f 98/101/57 95/102/56 97/99/56
f 99/103/58 96/104/57 98/101/57
f 100/105/59 101/106/58 99/103/58
f 105/107/60 102/108/59 100/105/59
f 106/109/61 103/110/60 105/107/60
f 107/111/62 104/112/61 106/109/61
f 108/113/63 109/114/62 107/111/62
f 113/115/64 110/116/63 108/113/63
f 114/117/65 111/118/64 113/115/64
f 115/119/66 112/120/65 114/117/65
f 116/121/67 117/122/66 115/119/66
f 121/123/68 118/124/67 116/121/67
f 122/125/69 119/126/68 121/123/68
f 123/127/70 120/128/69 122/125/69
f 124/129/71 125/130/72 123/127/70
f 129/131/73 126/132/71 124/129/71
f 130/133/74 127/134/73 129/131/73
f 131/135/75 128/136/74 130/133/74
f 132/137/76 133/138/77 131/135/75
f 137/139/78 134/140/76 132/137/76
f 138/141/79 135/142/78 137/139/78
f 139/143/80 136/144/79 138/141/79
f 140/145/81 141/146/80 139/143/80
f 145/147/82 142/148/81 140/145/81
f 146/149/83 143/150/82 145/147/82
f 147/151/84 144/152/83 146/149/83
f 148/153/85 149/154/84 147/151/84
f 153/155/86 150/156/85 148/153/85
f 154/157/87 151/158/88 153/155/86
f 155/159/89 152/160/87 154/157/87
f 156/161/90 157/162/89 155/159/89
f 161/163/91 158/164/90 156/161/90
f 162/165/92 159/166/91 161/163/91
f 163/167/93 160/168/92 162/165/92
f 164/169/94 165/170/93 163/167/93
f 169/5/95 166/171/94 164/169/94
f 170/172/96 167/173/95 169/5/95
f 171/174/97 168/10/96 170/172/96
f 172/175/98 173/176/97 171/174/97
f 177/177/99 174/178/98 172/175/98
f 178/179/100 175/180/99 177/177/99
f 179/181/101 176/182/100 178/179/100
f 180/183/102 181/184/101 179/181/101
f 184/4/103 182/8/102 180/183/102
f 2/3/2 183/9/103 184/4/103
f 1/1/1 4/7/1 5/2/2
f 81/83/3 76/81/3 60/65/3
f 76/81/3 75/79/3 60/65/3
f 75/79/3 74/77/3 67/71/3
f 74/77/3 73/75/3 67/71/3
f 73/75/3 68/73/3 67/71/3
f 67/71/3 66/69/3 65/67/3
f 65/67/3 60/65/3 75/79/3
f 60/65/3 59/63/3 162/165/3
f 59/63/3 58/61/3 3/6/3
f 58/61/3 57/59/3 9/11/3
f 3/6/3 58/61/3 9/11/3
f 57/59/3 52/57/3 35/39/3
f 52/57/3 51/55/3 35/39/3
f 51/55/3 50/53/3 43/47/3
f 50/53/3 49/51/3 43/47/3
f 49/51/3 44/49/3 43/47/3
f 43/47/3 42/45/3 41/43/3
f 41/43/3 36/41/3 51/55/3
f 36/41/3 35/39/3 51/55/3
f 35/39/3 34/37/3 57/59/3
f 34/37/3 33/35/3 57/59/3
f 33/35/3 28/33/3 57/59/3
f 28/33/3 27/31/3 57/59/3
f 27/31/3 26/29/104 25/27/3
f 25/27/3 20/25/3 27/31/3
f 20/25/3 19/23/3 57/59/3
f 27/31/3 20/25/3 57/59/3
f 19/23/3 18/21/3 57/59/3
f 18/21/3 17/19/3 57/59/3
f 17/19/3 12/17/3 57/59/3
f 12/17/3 11/15/3 57/59/3
f 11/15/3 10/13/3 57/59/3
f 10/13/3 9/11/3 57/59/3
f 3/6/3 1/1/3 59/63/3
f 1/1/3 2/3/3 164/169/3
f 59/63/3 1/1/3 163/167/3
f 43/47/3 41/43/3 51/55/3
f 67/71/3 65/67/3 75/79/3
f 60/65/3 162/165/3 161/163/3
f 82/85/3 81/83/3 60/65/3
f 84/89/3 83/87/3 60/65/3
f 83/87/3 82/85/3 60/65/3
f 90/93/3 89/91/3 60/65/3
f 89/91/3 84/89/3 60/65/3
f 92/97/3 91/95/3 60/65/3
f 91/95/3 90/93/3 60/65/3
f 98/101/3 97/99/3 60/65/3
f 97/99/3 92/97/3 60/65/3
f 100/105/3 99/103/3 60/65/3
f 99/103/3 98/101/3 60/65/3
f 106/109/3 105/107/3 60/65/3
f 105/107/3 100/105/3 60/65/3
f 108/113/3 107/111/3 60/65/3
f 107/111/3 106/109/3 60/65/3
f 114/117/3 113/115/3 60/65/3
f 113/115/3 108/113/3 60/65/3
f 116/121/3 115/119/3 60/65/3
f 115/119/3 114/117/3 60/65/3
f 122/125/3 121/123/3 60/65/3
f 121/123/3 116/121/3 60/65/3
f 124/129/3 123/127/3 60/65/3
f 123/127/3 122/125/3 60/65/3
f 130/133/3 129/131/3 60/65/3
f 129/131/3 124/129/3 60/65/3
f 132/137/3 131/135/3 60/65/3
f 131/135/3 130/133/3 60/65/3
f 138/141/3 137/139/3 156/161/3
f 137/139/3 132/137/3 156/161/3
f 140/145/3 139/143/3 156/161/3
f 139/143/3 138/141/3 156/161/3
f 146/149/3 145/147/105 140/145/3
f 148/153/3 147/151/3 146/149/3
f 154/157/3 153/155/3 148/153/3
f 156/161/3 155/159/106 154/157/3
f 161/163/3 156/161/3 60/65/3
f 156/161/3 154/157/3 148/153/3
f 156/161/3 146/149/3 140/145/3
f 148/153/3 146/149/3 156/161/3
f 156/161/3 132/137/3 60/65/3
f 164/169/3 163/167/3 1/1/3
f 163/167/3 162/165/3 59/63/3
f 169/5/3 164/169/3 2/3/3
f 171/174/3 170/172/3 180/183/3
f 170/172/3 169/5/3 184/4/3
f 171/174/3 180/183/3 179/181/3
f 177/177/3 172/175/3 178/179/3
f 172/175/3 171/174/3 179/181/3
f 179/181/3 178/179/3 172/175/3
f 184/4/3 180/183/3 170/172/3
f 3/6/4 6/12/4 4/7/1
f 77/82/5 78/84/5 63/70/5
f 78/84/5 79/86/5 62/68/5
f 63/70/5 78/84/5 62/68/5
f 79/86/5 80/88/5 62/68/5
f 80/88/5 85/90/5 62/68/5
f 85/90/5 86/92/5 62/68/5
f 86/92/5 87/94/5 62/68/5
f 87/94/5 88/96/5 62/68/5
f 88/96/5 93/98/5 62/68/5
f 93/98/5 94/100/5 62/68/5
f 94/100/5 95/102/5 62/68/5
f 95/102/5 96/104/5 62/68/5
f 96/104/5 101/106/5 62/68/5
f 101/106/5 102/108/5 62/68/5
f 102/108/5 103/110/5 62/68/5
f 103/110/5 104/112/5 62/68/5
f 104/112/5 109/114/5 62/68/5
f 109/114/5 110/116/5 62/68/5
f 110/116/5 111/118/5 62/68/5
f 111/118/5 112/120/5 62/68/5
f 112/120/5 117/122/5 62/68/5
f 117/122/5 118/124/5 62/68/5
f 118/124/5 119/126/5 62/68/5
f 119/126/5 120/128/5 62/68/5
f 120/128/5 125/130/5 62/68/5
f 125/130/5 126/132/5 62/68/5
f 126/132/5 127/134/5 62/68/5
f 127/134/5 128/136/5 62/68/5
f 128/136/5 133/138/5 62/68/5
f 133/138/5 134/140/5 62/68/5
f 134/140/5 135/142/5 62/68/5
f 135/142/5 136/144/5 158/164/5
f 136/144/5 141/146/5 158/164/5
f 141/146/5 142/148/5 158/164/5
f 142/148/5 143/150/5 158/164/5
f 143/150/5 144/152/5 149/154/5
f 149/154/5 150/156/5 151/158/5
f 151/158/5 152/160/107 157/162/5
f 157/162/5 158/164/5 149/154/5
f 158/164/5 159/166/5 62/68/5
f 160/168/5 165/170/5 61/66/5
f 165/170/5 166/171/5 4/7/5
f 61/66/5 165/170/5 4/7/5
f 151/158/5 157/162/5 149/154/5
f 135/142/5 158/164/5 62/68/5
f 158/164/5 143/150/5 149/154/5
f 166/171/5 167/173/5 5/2/5
f 167/173/5 168/10/5 183/9/5
f 166/171/5 5/2/5 4/7/5
f 159/166/5 160/168/5 62/68/5
f 71/78/5 72/80/5 69/74/5
f 72/80/5 77/82/5 69/74/5
f 69/74/5 70/76/5 71/78/5
f 63/70/5 64/72/108 69/74/5
f 61/66/5 62/68/5 160/168/5
f 55/62/5 56/64/5 7/14/5
f 56/64/5 61/66/5 6/12/5
f 53/58/5 54/60/5 37/42/5
f 54/60/5 55/62/5 37/42/5
f 47/54/5 48/56/5 45/50/5
f 48/56/5 53/58/5 45/50/5
f 45/50/5 46/52/5 47/54/5
f 39/46/5 40/48/5 45/50/5
f 37/42/5 38/44/5 53/58/5
f 38/44/5 39/46/5 53/58/5
f 31/38/5 32/40/5 55/62/5
f 32/40/5 37/42/5 55/62/5
f 29/34/5 30/36/5 55/62/5
f 30/36/5 31/38/5 55/62/5
f 23/30/109 24/32/108 29/34/5
f 21/26/5 22/28/5 55/62/5
f 22/28/5 23/30/109 29/34/5
f 15/22/5 16/24/5 55/62/5
f 16/24/5 21/26/5 55/62/5
f 13/18/5 14/20/5 55/62/5
f 14/20/5 15/22/5 55/62/5
f 7/14/5 8/16/5 55/62/5
f 8/16/5 13/18/5 55/62/5
f 4/7/5 6/12/5 61/66/5
f 6/12/5 7/14/5 56/64/5
f 22/28/5 29/34/5 55/62/5
f 39/46/5 45/50/5 53/58/5
f 63/70/5 69/74/5 77/82/5
f 168/10/5 173/176/5 182/8/5
f 167/173/5 183/9/5 5/2/5
f 173/176/5 174/178/5 181/184/5
f 174/178/5 175/180/5 176/182/5
f 181/184/5 174/178/5 176/182/5
f 181/184/5 182/8/5 173/176/5
f 9/11/6 7/14/6 6/12/4
f 10/13/7 8/16/9 7/14/6
f 11/15/8 13/18/8 8/16/9
f 12/17/10 14/20/12 13/18/8
f 17/19/11 15/22/11 14/20/12
f 18/21/13 16/24/13 15/22/11
f 19/23/14 21/26/14 16/24/13
f 20/25/15 22/28/15 21/26/14
f 25/27/16 23/30/18 22/28/15
f 26/29/17 24/32/17 23/30/18
f 27/31/19 29/34/19 24/32/17
f 28/33/20 30/36/20 29/34/19
f 33/35/21 31/38/23 30/36/20
f 34/37/22 32/40/22 31/38/23
f 35/39/24 37/42/24 32/40/22
f 36/41/25 38/44/25 37/42/24
f 41/43/26 39/46/26 38/44/25
f 42/45/27 40/48/27 39/46/26
f 43/47/28 45/50/28 40/48/27
f 44/49/29 46/52/29 45/50/28
f 49/51/30 47/54/30 46/52/29
f 50/53/31 48/56/31 47/54/30
f 51/55/32 53/58/32 48/56/31
f 52/57/33 54/60/33 53/58/32
f 57/59/34 55/62/34 54/60/33
f 58/61/35 56/64/35 55/62/34
f 59/63/36 61/66/36 56/64/35
f 60/65/37 62/68/37 61/66/38
f 65/67/39 63/70/41 62/68/37
f 66/69/40 64/72/40 63/70/41
f 67/71/42 69/74/42 64/72/40
f 68/73/43 70/76/43 69/74/42
f 73/75/44 71/78/44 70/76/43
f 74/77/45 72/80/45 71/78/44
f 75/79/46 77/82/46 72/80/45
f 76/81/47 78/84/47 77/82/46
f 81/83/48 79/86/48 78/84/47
f 82/85/49 80/88/49 79/86/48
f 83/87/50 85/90/50 80/88/49
f 84/89/51 86/92/51 85/90/50
f 89/91/52 87/94/52 86/92/51
f 90/93/53 88/96/53 87/94/52
f 91/95/54 93/98/54 88/96/53
f 92/97/55 94/100/55 93/98/54
f 97/99/56 95/102/56 94/100/55
f 98/101/57 96/104/57 95/102/56
f 99/103/58 101/106/58 96/104/57
f 100/105/59 102/108/59 101/106/58
f 105/107/60 103/110/60 102/108/59
f 106/109/61 104/112/61 103/110/60
f 107/111/62 109/114/62 104/112/61
f 108/113/63 110/116/63 109/114/62
f 113/115/64 111/118/64 110/116/63
f 114/117/65 112/120/65 111/118/64
f 115/119/66 117/122/66 112/120/65
f 116/121/67 118/124/67 117/122/66
f 121/123/68 119/126/68 118/124/67
f 122/125/69 120/128/69 119/126/68
f 123/127/70 125/130/72 120/128/69
f 124/129/71 126/132/71 125/130/72
f 129/131/73 127/134/73 126/132/71
f 130/133/74 128/136/74 127/134/73
f 131/135/75 133/138/77 128/136/74
f 132/137/76 134/140/76 133/138/77
f 137/139/78 135/142/78 134/140/76
f 138/141/79 136/144/79 135/142/78
f 139/143/80 141/146/80 136/144/79
f 140/145/81 142/148/81 141/146/80
f 145/147/82 143/150/82 142/148/81
f 146/149/83 144/152/83 143/150/82
f 147/151/84 149/154/84 144/152/83
f 148/153/85 150/156/85 149/154/84
f 153/155/86 151/158/88 150/156/85
f 154/157/87 152/160/87 151/158/88
f 155/159/89 157/162/89 152/160/87
f 156/161/90 158/164/90 157/162/89
f 161/163/91 159/166/91 158/164/90
f 162/165/92 160/168/92 159/166/91
f 163/167/93 165/170/93 160/168/92
f 164/169/94 166/171/94 165/170/93
f 169/5/95 167/173/95 166/171/94
f 170/172/96 168/10/96 167/173/95
f 171/174/97 173/176/97 168/10/96
f 172/175/98 174/178/98 173/176/97
f 177/177/99 175/180/99 174/178/98
f 178/179/100 176/182/100 175/180/99
f 179/181/101 181/184/101 176/182/100
f 180/183/102 182/8/102 181/184/101
f 184/4/103 183/9/103 182/8/102
f 2/3/2 5/2/2 183/9/103
