# Blender v2.92.0 OBJ File: 'letters tangerine.blend'
# www.blender.org
mtllib more_than.mtl
o more_than.001_Text.108
v 0.113457 0.315561 -0.049988
v -0.043537 0.385970 -0.049988
v 0.114190 0.315214 -0.049988
v 0.113457 0.315561 0.049988
v -0.043537 0.385970 0.049988
v 0.114190 0.315214 0.049988
v 0.114804 0.314808 0.049988
v 0.115300 0.314342 0.049988
v 0.114804 0.314808 -0.049988
v 0.115300 0.314342 -0.049988
v 0.115677 0.313817 -0.049988
v 0.115934 0.313232 -0.049988
v 0.115677 0.313817 0.049988
v 0.115934 0.313232 0.049988
v 0.116073 0.312588 0.049988
v 0.116093 0.311884 0.049988
v 0.116073 0.312588 -0.049988
v 0.116093 0.311884 -0.049988
v 0.115993 0.311121 -0.049988
v 0.115775 0.310298 -0.049988
v 0.115993 0.311121 0.049988
v 0.115775 0.310298 0.049988
v 0.115438 0.309416 0.049988
v 0.114983 0.308475 0.049988
v 0.115438 0.309416 -0.049988
v 0.114983 0.308475 -0.049988
v 0.114408 0.307473 -0.049988
v 0.113701 0.306453 -0.049988
v 0.114408 0.307473 0.049988
v 0.113701 0.306453 0.049988
v 0.112848 0.305451 0.049988
v 0.111851 0.304470 0.049988
v 0.112848 0.305451 -0.049988
v 0.111851 0.304470 -0.049988
v 0.110707 0.303509 -0.049988
v 0.109419 0.302567 -0.049988
v 0.110707 0.303509 0.049988
v 0.109419 0.302567 0.049988
v 0.107985 0.301646 0.049988
v 0.106406 0.300744 0.049988
v 0.107985 0.301646 -0.049988
v 0.106406 0.300744 -0.049988
v 0.104682 0.299862 -0.049988
v 0.102812 0.298999 -0.049988
v 0.104682 0.299862 0.049988
v 0.102812 0.298999 0.049988
v 0.100797 0.298157 0.049988
v 0.098636 0.297334 0.049988
v 0.100797 0.298157 -0.049988
v 0.098636 0.297334 -0.049988
v 0.096330 0.296532 -0.049988
v -0.112994 0.229928 -0.049988
v 0.096330 0.296532 0.049988
v -0.112994 0.229928 0.049988
v -0.113873 0.230292 0.049988
v -0.114607 0.230747 0.049988
v -0.113873 0.230292 -0.049988
v -0.114607 0.230747 -0.049988
v -0.115195 0.231296 -0.049988
v -0.115638 0.231937 -0.049988
v -0.115195 0.231296 0.049988
v -0.115638 0.231937 0.049988
v -0.115935 0.232670 0.049988
v -0.116087 0.233496 0.049988
v -0.115935 0.232670 -0.049988
v -0.116087 0.233496 -0.049988
v -0.116094 0.234414 -0.049988
v -0.115955 0.235425 -0.049988
v -0.116094 0.234414 0.049988
v -0.115955 0.235425 0.049988
v -0.115671 0.236529 0.049988
v -0.115242 0.237725 0.049988
v -0.115671 0.236529 -0.049988
v -0.115242 0.237725 -0.049988
v -0.114667 0.239013 -0.049988
v -0.113946 0.240395 -0.049988
v -0.114667 0.239013 0.049988
v -0.113946 0.240395 0.049988
v -0.113093 0.241795 0.049988
v -0.112123 0.243143 0.049988
v -0.113093 0.241795 -0.049988
v -0.112123 0.243143 -0.049988
v -0.111032 0.244438 -0.049988
v -0.109823 0.245681 -0.049988
v -0.111032 0.244438 0.049988
v -0.109823 0.245681 0.049988
v -0.108495 0.246870 0.049988
v -0.107048 0.248006 0.049988
v -0.108495 0.246870 -0.049988
v -0.107048 0.248006 -0.049988
v -0.105482 0.249090 -0.049988
v -0.103797 0.250121 -0.049988
v -0.105482 0.249090 0.049988
v -0.103797 0.250121 0.049988
v -0.101994 0.251099 0.049988
v -0.100071 0.252024 0.049988
v -0.101994 0.251099 -0.049988
v -0.100071 0.252024 -0.049988
v -0.098029 0.252896 -0.049988
v -0.095868 0.253715 -0.049988
v -0.098029 0.252896 0.049988
v -0.095868 0.253715 0.049988
v -0.048188 0.268238 0.049988
v 0.071591 0.307949 0.049988
v -0.048188 0.268238 -0.049988
v 0.071591 0.307949 -0.049988
v 0.052033 0.317200 -0.049988
v -0.042691 0.359910 -0.049988
v 0.052033 0.317200 0.049988
v -0.042691 0.359910 0.049988
v -0.065421 0.370747 0.049988
v -0.066132 0.371401 0.049988
v -0.065421 0.370747 -0.049988
v -0.066132 0.371401 -0.049988
v -0.066676 0.372095 -0.049988
v -0.067056 0.372828 -0.049988
v -0.066676 0.372095 0.049988
v -0.067056 0.372828 0.049988
v -0.067270 0.373601 0.049988
v -0.067320 0.374414 0.049988
v -0.067270 0.373601 -0.049988
v -0.067320 0.374414 -0.049988
v -0.067204 0.375266 -0.049988
v -0.066924 0.376158 -0.049988
v -0.067204 0.375266 0.049988
v -0.066924 0.376158 0.049988
v -0.066478 0.377090 0.049988
v -0.065866 0.378061 0.049988
v -0.066478 0.377090 -0.049988
v -0.065866 0.378061 -0.049988
v -0.065090 0.379072 -0.049988
v -0.064149 0.380123 -0.049988
v -0.065090 0.379072 0.049988
v -0.064149 0.380123 0.049988
v -0.063043 0.381213 0.049988
v -0.061817 0.382263 0.049988
v -0.063043 0.381213 -0.049988
v -0.061817 0.382263 -0.049988
v -0.060518 0.383195 -0.049988
v -0.059147 0.384008 -0.049988
v -0.060518 0.383195 0.049988
v -0.059147 0.384008 0.049988
v -0.057703 0.384702 0.049988
v -0.056187 0.385277 0.049988
v -0.057703 0.384702 -0.049988
v -0.056187 0.385277 -0.049988
v -0.054598 0.385732 -0.049988
v -0.052937 0.386069 -0.049988
v -0.054598 0.385732 0.049988
v -0.052937 0.386069 0.049988
v -0.051202 0.386287 0.049988
v -0.049395 0.386387 0.049988
v -0.051202 0.386287 -0.049988
v -0.049395 0.386387 -0.049988
v -0.047515 0.386367 -0.049988
v -0.045563 0.386228 -0.049988
v -0.047515 0.386367 0.049988
v -0.045563 0.386228 0.049988
vt 0.803347 0.000000
vt 0.000000 0.000000
vt 0.000000 0.000000
vt 0.100418 0.000000
vt 0.472803 0.000000
vt 0.602510 0.000000
vt 0.004184 0.000000
vt 0.004184 0.000000
vt 0.619247 0.000000
vt 0.602510 0.000000
vt 0.008368 0.000000
vt 0.008368 0.000000
vt 0.012552 0.000000
vt 0.012552 0.000000
vt 0.016736 0.000000
vt 0.016736 0.000000
vt 0.020921 0.000000
vt 0.020921 0.000000
vt 0.025105 0.000000
vt 0.025105 0.000000
vt 0.029289 0.000000
vt 0.029289 0.000000
vt 0.033473 0.000000
vt 0.033473 0.000000
vt 0.037657 0.000000
vt 0.037657 0.000000
vt 0.041841 0.000000
vt 0.041841 0.000000
vt 0.046025 0.000000
vt 0.046025 0.000000
vt 0.050209 0.000000
vt 0.050209 0.000000
vt 0.054393 0.000000
vt 0.054393 0.000000
vt 0.058577 0.000000
vt 0.058577 0.000000
vt 0.062762 0.000000
vt 0.062762 0.000000
vt 0.066946 0.000000
vt 0.066946 0.000000
vt 0.071130 0.000000
vt 0.071130 0.000000
vt 0.075314 0.000000
vt 0.075314 0.000000
vt 0.079498 0.000000
vt 0.079498 0.000000
vt 0.083682 0.000000
vt 0.083682 0.000000
vt 0.087866 0.000000
vt 0.087866 0.000000
vt 0.092050 0.000000
vt 0.092050 0.000000
vt 0.096234 0.000000
vt 0.096234 0.000000
vt 0.100418 0.000000
vt 0.301255 0.000000
vt 0.301255 0.000000
vt 0.305439 0.000000
vt 0.305439 0.000000
vt 0.309623 0.000000
vt 0.309623 0.000000
vt 0.313808 0.000000
vt 0.313808 0.000000
vt 0.317992 0.000000
vt 0.317992 0.000000
vt 0.322176 0.000000
vt 0.322176 0.000000
vt 0.326360 0.000000
vt 0.326360 0.000000
vt 0.330544 0.000000
vt 0.330544 0.000000
vt 0.334728 0.000000
vt 0.334728 0.000000
vt 0.338912 0.000000
vt 0.338912 0.000000
vt 0.343096 0.000000
vt 0.343096 0.000000
vt 0.347280 0.000000
vt 0.347280 0.000000
vt 0.351464 0.000000
vt 0.351464 0.000000
vt 0.355649 0.000000
vt 0.355649 0.000000
vt 0.359833 0.000000
vt 0.359833 0.000000
vt 0.364017 0.000000
vt 0.364017 0.000000
vt 0.368201 0.000000
vt 0.368201 0.000000
vt 0.372385 0.000000
vt 0.372385 0.000000
vt 0.376569 0.000000
vt 0.376569 0.000000
vt 0.380753 0.000000
vt 0.380753 0.000000
vt 0.384937 0.000000
vt 0.384937 0.000000
vt 0.389121 0.000000
vt 0.389121 0.000000
vt 0.393305 0.000000
vt 0.393305 0.000000
vt 0.397490 0.000000
vt 0.397490 0.000000
vt 0.401674 0.000000
vt 0.401674 0.000000
vt 0.472803 0.000000
vt 0.619247 0.000000
vt 0.686192 0.000000
vt 0.686192 0.000000
vt 0.702929 0.000000
vt 0.702929 0.000000
vt 0.707113 0.000000
vt 0.707113 0.000000
vt 0.711297 0.000000
vt 0.711297 0.000000
vt 0.715481 0.000000
vt 0.715481 0.000000
vt 0.719665 0.000000
vt 0.719665 0.000000
vt 0.723849 0.000000
vt 0.723849 0.000000
vt 0.728033 0.000000
vt 0.728033 0.000000
vt 0.732218 0.000000
vt 0.732218 0.000000
vt 0.736402 0.000000
vt 0.736402 0.000000
vt 0.740586 0.000000
vt 0.740586 0.000000
vt 0.744770 0.000000
vt 0.744770 0.000000
vt 0.748954 0.000000
vt 0.748954 0.000000
vt 0.753138 0.000000
vt 0.753138 0.000000
vt 0.757322 0.000000
vt 0.757322 0.000000
vt 0.761506 0.000000
vt 0.761506 0.000000
vt 0.765690 0.000000
vt 0.765690 0.000000
vt 0.769874 0.000000
vt 0.769874 0.000000
vt 0.774059 0.000000
vt 0.774059 0.000000
vt 0.778243 0.000000
vt 0.778243 0.000000
vt 0.782427 0.000000
vt 0.782427 0.000000
vt 0.786611 0.000000
vt 0.786611 0.000000
vt 0.790795 0.000000
vt 0.790795 0.000000
vt 0.794979 0.000000
vt 0.794979 0.000000
vt 0.799163 0.000000
vt 0.799163 0.000000
vt 0.803347 0.000000
vn 0.2707 0.9627 0.0000
vn 0.4184 0.9083 0.0000
vn -0.0000 0.0000 -1.0000
vn 0.4909 0.8712 0.0000
vn 0.0000 -0.0000 1.0000
vn 0.6204 0.7843 0.0000
vn 0.7522 0.6589 0.0000
vn 0.8686 0.4955 0.0000
vn 0.9514 0.3080 0.0000
vn 0.9928 0.1197 0.0000
vn 0.9987 -0.0504 0.0000
vn 0.9812 -0.1931 0.0000
vn 0.9812 -0.1932 0.0000
vn 0.9517 -0.3070 0.0000
vn 0.9180 -0.3965 0.0000
vn 0.8841 -0.4672 0.0000
vn 0.8454 -0.5341 0.0000
vn 0.7928 -0.6095 0.0000
vn 0.7320 -0.6813 0.0000
vn 0.6729 -0.7398 0.0000
vn 0.6171 -0.7869 0.0000
vn 0.5657 -0.8246 0.0000
vn 0.5186 -0.8550 0.0000
vn 0.4758 -0.8795 0.0000
vn 0.4372 -0.8994 0.0000
vn 0.4023 -0.9155 0.0000
vn 0.3707 -0.9287 0.0000
vn 0.3423 -0.9396 0.0000
vn 0.3160 -0.9488 0.0000
vn 0.3032 -0.9529 0.0000
vn -0.3819 -0.9242 -0.0000
vn -0.4564 -0.8898 -0.0000
vn -0.4565 -0.8897 -0.0000
vn -0.6077 -0.7942 -0.0000
vn -0.7568 -0.6537 -0.0000
vn -0.8800 -0.4749 -0.0000
vn -0.9601 -0.2797 -0.0000
vn -0.9955 -0.0943 -0.0000
vn -0.9979 0.0643 0.0000
vn -0.9812 0.1928 0.0000
vn -0.9558 0.2939 0.0000
vn -0.9279 0.3729 0.0000
vn -0.9003 0.4353 0.0000
vn -0.8708 0.4916 0.0000
vn -0.8335 0.5526 0.0000
vn -0.7888 0.6146 0.0000
vn -0.7413 0.6712 0.0000
vn -0.6922 0.7217 0.0000
vn -0.6427 0.7661 0.0000
vn -0.5937 0.8047 0.0000
vn -0.5456 0.8380 0.0000
vn -0.4994 0.8664 0.0000
vn -0.4553 0.8903 0.0000
vn -0.4133 0.9106 0.0000
vn -0.3738 0.9275 0.0000
vn -0.3231 0.9463 0.0000
vn -0.3031 0.9530 0.0000
vn -0.3147 0.9492 0.0000
vn -0.4276 -0.9040 0.0000
vn -0.4193 -0.9078 0.0000
vn -0.4207 -0.9072 0.0000
vn -0.5601 -0.8284 0.0000
vn -0.7344 -0.6787 0.0000
vn -0.8411 -0.5409 0.0000
vn -0.9308 -0.3655 0.0000
vn -0.9863 -0.1651 0.0000
vn -0.9993 0.0368 0.0000
vn -0.9760 0.2178 0.0000
vn -0.9303 0.3669 0.0000
vn -0.8755 0.4831 0.0000
vn -0.8756 0.4831 0.0000
vn -0.8206 0.5715 0.0000
vn -0.7695 0.6386 0.0000
vn -0.7237 0.6901 0.0000
vn -0.6767 0.7362 0.0000
vn -0.6174 0.7866 0.0000
vn -0.5469 0.8372 0.0000
vn -0.4719 0.8816 0.0000
vn -0.3942 0.9190 0.0000
vn -0.3154 0.9490 0.0000
vn -0.2375 0.9714 0.0000
vn -0.1619 0.9868 0.0000
vn -0.0898 0.9960 0.0000
vn -0.0221 0.9998 0.0000
vn 0.0407 0.9992 0.0000
vn 0.0987 0.9951 0.0000
vn 0.0001 0.0000 -1.0000
vn -0.0001 0.0000 -1.0000
vn -0.0001 0.0000 1.0000
usemtl Material.001
s 1
f 2/1/1 4/2/2 1/3/2
f 51/4/3 105/5/3 106/6/3
f 1/3/2 6/7/4 3/8/4
f 109/9/5 104/10/5 4/2/5
f 3/8/4 7/11/6 9/12/6
f 9/12/6 8/13/7 10/14/7
f 10/14/7 13/15/8 11/16/8
f 11/16/8 14/17/9 12/18/9
f 12/18/9 15/19/10 17/20/10
f 17/20/10 16/21/11 18/22/11
f 18/22/11 21/23/12 19/24/13
f 19/24/13 22/25/14 20/26/14
f 20/26/14 23/27/15 25/28/15
f 25/28/15 24/29/16 26/30/16
f 26/30/16 29/31/17 27/32/17
f 27/32/17 30/33/18 28/34/18
f 28/34/18 31/35/19 33/36/19
f 33/36/19 32/37/20 34/38/20
f 34/38/20 37/39/21 35/40/21
f 35/40/21 38/41/22 36/42/22
f 36/42/22 39/43/23 41/44/23
f 41/44/23 40/45/24 42/46/24
f 42/46/24 45/47/25 43/48/25
f 43/48/25 46/49/26 44/50/26
f 44/50/26 47/51/27 49/52/27
f 49/52/27 48/53/28 50/54/28
f 50/54/28 53/55/29 51/4/29
f 51/4/29 54/56/30 52/57/30
f 52/57/31 55/58/32 57/59/33
f 57/59/33 56/60/34 58/61/34
f 58/61/34 61/62/35 59/63/35
f 59/63/35 62/64/36 60/65/36
f 60/65/36 63/66/37 65/67/37
f 65/67/37 64/68/38 66/69/38
f 66/69/38 69/70/39 67/71/39
f 67/71/39 70/72/40 68/73/40
f 68/73/40 71/74/41 73/75/41
f 73/75/41 72/76/42 74/77/42
f 74/77/42 77/78/43 75/79/43
f 75/79/43 78/80/44 76/81/44
f 76/81/44 79/82/45 81/83/45
f 81/83/45 80/84/46 82/85/46
f 82/85/46 85/86/47 83/87/47
f 83/87/47 86/88/48 84/89/48
f 84/89/48 87/90/49 89/91/49
f 89/91/49 88/92/50 90/93/50
f 90/93/50 93/94/51 91/95/51
f 91/95/51 94/96/52 92/97/52
f 92/97/52 95/98/53 97/99/53
f 97/99/53 96/100/54 98/101/54
f 98/101/54 101/102/55 99/103/55
f 99/103/55 102/104/56 100/105/56
f 100/105/56 103/106/57 105/5/57
f 105/5/57 104/10/58 106/6/58
f 106/6/59 109/9/60 107/107/60
f 107/107/60 110/108/61 108/109/61
f 108/109/61 111/110/62 113/111/62
f 113/111/62 112/112/63 114/113/63
f 114/113/63 117/114/64 115/115/64
f 115/115/64 118/116/65 116/117/65
f 116/117/65 119/118/66 121/119/66
f 121/119/66 120/120/67 122/121/67
f 122/121/67 125/122/68 123/123/68
f 123/123/68 126/124/69 124/125/69
f 124/125/69 127/126/70 129/127/71
f 129/127/71 128/128/72 130/129/72
f 130/129/72 133/130/73 131/131/73
f 131/131/73 134/132/74 132/133/74
f 132/133/74 135/134/75 137/135/75
f 137/135/75 136/136/76 138/137/76
f 138/137/76 141/138/77 139/139/77
f 139/139/77 142/140/78 140/141/78
f 140/141/78 143/142/79 145/143/79
f 145/143/79 144/144/80 146/145/80
f 146/145/80 149/146/81 147/147/81
f 147/147/81 150/148/82 148/149/82
f 148/149/82 151/150/83 153/151/83
f 153/151/83 152/152/84 154/153/84
f 154/153/84 157/154/85 155/155/85
f 155/155/85 158/156/86 156/157/86
f 156/157/86 5/158/1 2/1/1
f 2/1/1 5/158/1 4/2/2
f 156/157/3 2/1/3 108/109/3
f 2/1/3 1/3/3 107/107/3
f 1/3/3 3/8/3 19/24/3
f 3/8/3 9/12/3 18/22/3
f 19/24/3 3/8/3 18/22/3
f 9/12/3 10/14/3 17/20/3
f 10/14/3 11/16/87 17/20/3
f 11/16/87 12/18/3 17/20/3
f 17/20/3 18/22/3 9/12/3
f 19/24/3 20/26/3 1/3/3
f 20/26/3 25/28/3 1/3/3
f 25/28/3 26/30/3 1/3/3
f 26/30/3 27/32/3 1/3/3
f 27/32/3 28/34/3 1/3/3
f 28/34/3 33/36/3 1/3/3
f 33/36/3 34/38/3 1/3/3
f 34/38/3 35/40/3 1/3/3
f 35/40/3 36/42/3 1/3/3
f 36/42/3 41/44/3 1/3/3
f 41/44/3 42/46/3 1/3/3
f 42/46/3 43/48/3 1/3/3
f 43/48/3 44/50/3 1/3/3
f 44/50/3 49/52/3 1/3/3
f 49/52/3 50/54/3 1/3/3
f 50/54/3 51/4/3 106/6/3
f 51/4/3 52/57/3 105/5/3
f 52/57/3 57/59/3 67/71/3
f 105/5/3 52/57/3 100/105/3
f 57/59/3 58/61/3 66/69/3
f 58/61/3 59/63/3 65/67/3
f 59/63/3 60/65/3 65/67/3
f 65/67/3 66/69/3 58/61/3
f 66/69/3 67/71/3 57/59/3
f 67/71/3 68/73/3 52/57/3
f 68/73/3 73/75/3 52/57/3
f 73/75/3 74/77/3 52/57/3
f 74/77/3 75/79/3 52/57/3
f 75/79/3 76/81/3 52/57/3
f 76/81/3 81/83/3 52/57/3
f 81/83/3 82/85/3 52/57/3
f 82/85/3 83/87/3 52/57/3
f 83/87/3 84/89/3 52/57/3
f 84/89/3 89/91/3 52/57/3
f 89/91/3 90/93/3 52/57/3
f 90/93/3 91/95/3 52/57/3
f 91/95/3 92/97/3 52/57/3
f 92/97/3 97/99/3 52/57/3
f 97/99/3 98/101/3 52/57/3
f 98/101/3 99/103/3 52/57/3
f 99/103/3 100/105/3 52/57/3
f 50/54/3 106/6/3 1/3/3
f 2/1/3 107/107/3 108/109/3
f 107/107/3 1/3/3 106/6/3
f 154/153/3 155/155/3 108/109/3
f 155/155/3 156/157/3 108/109/3
f 148/149/3 153/151/3 108/109/3
f 153/151/3 154/153/3 108/109/3
f 146/145/3 147/147/3 113/111/3
f 147/147/3 148/149/3 108/109/3
f 113/111/3 147/147/3 108/109/3
f 140/141/3 145/143/3 113/111/3
f 145/143/3 146/145/3 113/111/3
f 138/137/3 139/139/3 113/111/3
f 139/139/3 140/141/3 113/111/3
f 132/133/3 137/135/3 113/111/3
f 137/135/3 138/137/3 113/111/3
f 130/129/3 131/131/3 113/111/3
f 131/131/3 132/133/3 113/111/3
f 124/125/3 129/127/3 113/111/3
f 129/127/3 130/129/3 113/111/3
f 124/125/3 113/111/3 114/113/3
f 122/121/3 123/123/3 114/113/3
f 123/123/3 124/125/3 114/113/3
f 116/117/3 121/119/88 122/121/3
f 114/113/3 115/115/3 122/121/3
f 115/115/3 116/117/3 122/121/3
f 1/3/2 4/2/2 6/7/4
f 4/2/5 5/158/5 109/9/5
f 5/158/5 158/156/5 110/108/5
f 109/9/5 5/158/5 110/108/5
f 158/156/5 157/154/5 110/108/5
f 157/154/5 152/152/5 110/108/5
f 152/152/5 151/150/5 110/108/5
f 151/150/5 150/148/5 110/108/5
f 150/148/5 149/146/5 110/108/5
f 149/146/5 144/144/5 111/110/5
f 144/144/5 143/142/5 111/110/5
f 143/142/5 142/140/5 111/110/5
f 142/140/5 141/138/5 111/110/5
f 141/138/5 136/136/5 111/110/5
f 136/136/5 135/134/5 111/110/5
f 135/134/5 134/132/5 111/110/5
f 134/132/5 133/130/5 111/110/5
f 133/130/5 128/128/5 111/110/5
f 128/128/5 127/126/5 111/110/5
f 127/126/5 126/124/5 111/110/5
f 111/110/5 126/124/5 112/112/5
f 126/124/5 125/122/5 112/112/5
f 125/122/5 120/120/5 112/112/5
f 120/120/5 119/118/5 118/116/5
f 118/116/5 117/114/5 120/120/5
f 117/114/5 112/112/5 120/120/5
f 111/110/5 110/108/5 149/146/5
f 7/11/5 6/7/5 16/21/5
f 6/7/5 4/2/5 21/23/5
f 13/15/5 8/13/5 15/19/5
f 8/13/5 7/11/5 15/19/5
f 15/19/5 14/17/5 13/15/5
f 21/23/5 16/21/5 6/7/5
f 16/21/5 15/19/5 7/11/5
f 23/27/5 22/25/5 4/2/5
f 22/25/5 21/23/5 4/2/5
f 29/31/5 24/29/5 4/2/5
f 24/29/5 23/27/5 4/2/5
f 31/35/5 30/33/5 4/2/5
f 30/33/5 29/31/5 4/2/5
f 37/39/5 32/37/5 4/2/5
f 32/37/5 31/35/5 4/2/5
f 39/43/5 38/41/5 4/2/5
f 38/41/5 37/39/5 4/2/5
f 45/47/5 40/45/5 4/2/5
f 40/45/5 39/43/5 4/2/5
f 47/51/5 46/49/5 4/2/5
f 46/49/5 45/47/5 4/2/5
f 53/55/5 48/53/5 104/10/5
f 48/53/5 47/51/5 4/2/5
f 104/10/5 48/53/5 4/2/5
f 55/58/5 54/56/5 69/70/5
f 54/56/5 53/55/5 103/106/5
f 61/62/5 56/60/5 63/66/5
f 56/60/5 55/58/5 64/68/5
f 63/66/5 56/60/5 64/68/5
f 63/66/5 62/64/89 61/62/5
f 69/70/5 64/68/5 55/58/5
f 71/74/5 70/72/5 54/56/5
f 70/72/5 69/70/5 54/56/5
f 77/78/5 72/76/5 54/56/5
f 72/76/5 71/74/5 54/56/5
f 79/82/5 78/80/5 54/56/5
f 78/80/5 77/78/5 54/56/5
f 85/86/5 80/84/5 54/56/5
f 80/84/5 79/82/5 54/56/5
f 87/90/5 86/88/5 54/56/5
f 86/88/5 85/86/5 54/56/5
f 93/94/5 88/92/5 54/56/5
f 88/92/5 87/90/5 54/56/5
f 95/98/5 94/96/5 54/56/5
f 94/96/5 93/94/5 54/56/5
f 101/102/5 96/100/5 54/56/5
f 96/100/5 95/98/5 54/56/5
f 103/106/5 102/104/5 54/56/5
f 102/104/5 101/102/5 54/56/5
f 103/106/5 53/55/5 104/10/5
f 3/8/4 6/7/4 7/11/6
f 9/12/6 7/11/6 8/13/7
f 10/14/7 8/13/7 13/15/8
f 11/16/8 13/15/8 14/17/9
f 12/18/9 14/17/9 15/19/10
f 17/20/10 15/19/10 16/21/11
f 18/22/11 16/21/11 21/23/12
f 19/24/13 21/23/12 22/25/14
f 20/26/14 22/25/14 23/27/15
f 25/28/15 23/27/15 24/29/16
f 26/30/16 24/29/16 29/31/17
f 27/32/17 29/31/17 30/33/18
f 28/34/18 30/33/18 31/35/19
f 33/36/19 31/35/19 32/37/20
f 34/38/20 32/37/20 37/39/21
f 35/40/21 37/39/21 38/41/22
f 36/42/22 38/41/22 39/43/23
f 41/44/23 39/43/23 40/45/24
f 42/46/24 40/45/24 45/47/25
f 43/48/25 45/47/25 46/49/26
f 44/50/26 46/49/26 47/51/27
f 49/52/27 47/51/27 48/53/28
f 50/54/28 48/53/28 53/55/29
f 51/4/29 53/55/29 54/56/30
f 52/57/31 54/56/31 55/58/32
f 57/59/33 55/58/32 56/60/34
f 58/61/34 56/60/34 61/62/35
f 59/63/35 61/62/35 62/64/36
f 60/65/36 62/64/36 63/66/37
f 65/67/37 63/66/37 64/68/38
f 66/69/38 64/68/38 69/70/39
f 67/71/39 69/70/39 70/72/40
f 68/73/40 70/72/40 71/74/41
f 73/75/41 71/74/41 72/76/42
f 74/77/42 72/76/42 77/78/43
f 75/79/43 77/78/43 78/80/44
f 76/81/44 78/80/44 79/82/45
f 81/83/45 79/82/45 80/84/46
f 82/85/46 80/84/46 85/86/47
f 83/87/47 85/86/47 86/88/48
f 84/89/48 86/88/48 87/90/49
f 89/91/49 87/90/49 88/92/50
f 90/93/50 88/92/50 93/94/51
f 91/95/51 93/94/51 94/96/52
f 92/97/52 94/96/52 95/98/53
f 97/99/53 95/98/53 96/100/54
f 98/101/54 96/100/54 101/102/55
f 99/103/55 101/102/55 102/104/56
f 100/105/56 102/104/56 103/106/57
f 105/5/57 103/106/57 104/10/58
f 106/6/59 104/10/59 109/9/60
f 107/107/60 109/9/60 110/108/61
f 108/109/61 110/108/61 111/110/62
f 113/111/62 111/110/62 112/112/63
f 114/113/63 112/112/63 117/114/64
f 115/115/64 117/114/64 118/116/65
f 116/117/65 118/116/65 119/118/66
f 121/119/66 119/118/66 120/120/67
f 122/121/67 120/120/67 125/122/68
f 123/123/68 125/122/68 126/124/69
f 124/125/69 126/124/69 127/126/70
f 129/127/71 127/126/70 128/128/72
f 130/129/72 128/128/72 133/130/73
f 131/131/73 133/130/73 134/132/74
f 132/133/74 134/132/74 135/134/75
f 137/135/75 135/134/75 136/136/76
f 138/137/76 136/136/76 141/138/77
f 139/139/77 141/138/77 142/140/78
f 140/141/78 142/140/78 143/142/79
f 145/143/79 143/142/79 144/144/80
f 146/145/80 144/144/80 149/146/81
f 147/147/81 149/146/81 150/148/82
f 148/149/82 150/148/82 151/150/83
f 153/151/83 151/150/83 152/152/84
f 154/153/84 152/152/84 157/154/85
f 155/155/85 157/154/85 158/156/86
f 156/157/86 158/156/86 5/158/1
