# Blender v2.92.0 OBJ File: 'letters tangerine.blend'
# www.blender.org
mtllib single_quotation_marks.mtl
o single_quotation_marks.001_Text.135
v 0.012333 0.354944 -0.049988
v 0.012838 0.355717 -0.049988
v -0.056173 0.242670 -0.049988
v 0.012333 0.354944 0.049988
v 0.012838 0.355717 0.049988
v -0.056173 0.242670 0.049988
v -0.056457 0.241894 0.049988
v -0.056675 0.241150 0.049988
v -0.056457 0.241894 -0.049988
v -0.056675 0.241150 -0.049988
v -0.056828 0.240440 -0.049988
v -0.056913 0.239763 -0.049988
v -0.056828 0.240440 0.049988
v -0.056913 0.239763 0.049988
v -0.056933 0.239119 0.049988
v -0.056887 0.238507 0.049988
v -0.056933 0.239119 -0.049988
v -0.056887 0.238507 -0.049988
v -0.056775 0.237929 -0.049988
v -0.056596 0.237384 -0.049988
v -0.056775 0.237929 0.049988
v -0.056596 0.237384 0.049988
v -0.056352 0.236872 0.049988
v -0.056041 0.236393 0.049988
v -0.056352 0.236872 -0.049988
v -0.056041 0.236393 -0.049988
v -0.055665 0.235947 -0.049988
v -0.055222 0.235534 -0.049988
v -0.055665 0.235947 0.049988
v -0.055222 0.235534 0.049988
v -0.054733 0.235167 0.049988
v -0.054217 0.234860 0.049988
v -0.054733 0.235167 -0.049988
v -0.054217 0.234860 -0.049988
v -0.053675 0.234612 -0.049988
v -0.053107 0.234424 -0.049988
v -0.053675 0.234612 0.049988
v -0.053107 0.234424 0.049988
v -0.052513 0.234295 0.049988
v -0.051892 0.234226 0.049988
v -0.052513 0.234295 -0.049988
v -0.051892 0.234226 -0.049988
v -0.051244 0.234216 -0.049988
v -0.050570 0.234265 -0.049988
v -0.051244 0.234216 0.049988
v -0.050570 0.234265 0.049988
v -0.049870 0.234374 0.049988
v -0.049143 0.234543 0.049988
v -0.049870 0.234374 -0.049988
v -0.049143 0.234543 -0.049988
v -0.048390 0.234771 -0.049988
v -0.047610 0.235058 -0.049988
v -0.048390 0.234771 0.049988
v -0.047610 0.235058 0.049988
v -0.042139 0.240678 0.049988
v -0.038227 0.244854 0.049988
v -0.042139 0.240678 -0.049988
v -0.038227 0.244854 -0.049988
v -0.029770 0.254236 -0.049988
v 0.056101 0.353993 -0.049988
v -0.029770 0.254236 0.049988
v 0.056101 0.353993 0.049988
v 0.056616 0.355512 0.049988
v 0.056894 0.356900 0.049988
v 0.056616 0.355512 -0.049988
v 0.056894 0.356900 -0.049988
v 0.056933 0.358155 -0.049988
v 0.056735 0.359279 -0.049988
v 0.056933 0.358155 0.049988
v 0.056735 0.359279 0.049988
v 0.056299 0.360270 0.049988
v 0.055625 0.361129 0.049988
v 0.056299 0.360270 -0.049988
v 0.055625 0.361129 -0.049988
v 0.054713 0.361856 -0.049988
v 0.053564 0.362450 -0.049988
v 0.054713 0.361856 0.049988
v 0.053564 0.362450 0.049988
v 0.052176 0.362913 0.049988
v 0.050550 0.363243 0.049988
v 0.052176 0.362913 -0.049988
v 0.050550 0.363243 -0.049988
v 0.048687 0.363441 -0.049988
v 0.046586 0.363508 -0.049988
v 0.048687 0.363441 0.049988
v 0.046586 0.363508 0.049988
v 0.041154 0.363455 0.049988
v 0.036278 0.363296 0.049988
v 0.041154 0.363455 -0.049988
v 0.036278 0.363296 -0.049988
v 0.031956 0.363032 -0.049988
v 0.030004 0.362860 -0.049988
v 0.031956 0.363032 0.049988
v 0.030004 0.362860 0.049988
v 0.028190 0.362662 0.049988
v 0.026515 0.362437 0.049988
v 0.028190 0.362662 -0.049988
v 0.026515 0.362437 -0.049988
v 0.024979 0.362186 -0.049988
v 0.023582 0.361908 -0.049988
v 0.024979 0.362186 0.049988
v 0.023582 0.361908 0.049988
v 0.022323 0.361604 0.049988
v 0.021164 0.361268 0.049988
v 0.022323 0.361604 -0.049988
v 0.021164 0.361268 -0.049988
v 0.020064 0.360891 -0.049988
v 0.019023 0.360475 -0.049988
v 0.020064 0.360891 0.049988
v 0.019023 0.360475 0.049988
v 0.018042 0.360019 0.049988
v 0.017120 0.359523 0.049988
v 0.018042 0.360019 -0.049988
v 0.017120 0.359523 -0.049988
v 0.016258 0.358988 -0.049988
v 0.015455 0.358413 -0.049988
v 0.016258 0.358988 0.049988
v 0.015455 0.358413 0.049988
v 0.014712 0.357799 0.049988
v 0.014028 0.357144 0.049988
v 0.014712 0.357799 -0.049988
v 0.014028 0.357144 -0.049988
v 0.013403 0.356451 -0.049988
v 0.013403 0.356451 0.049988
vt 0.000000 0.000000
vt 0.006452 0.000000
vt 0.006452 0.000000
vt 0.567742 0.000000
vt 0.574194 0.000000
vt 0.677419 0.000000
vt 0.696774 0.000000
vt 0.000000 0.000000
vt 0.593548 0.000000
vt 0.587097 0.000000
vt 0.677419 0.000000
vt 0.690323 0.000000
vt 0.696774 0.000000
vt 0.683871 0.000000
vt 0.690323 0.000000
vt 0.683871 0.000000
vt 0.670968 0.000000
vt 0.664516 0.000000
vt 0.670968 0.000000
vt 0.658065 0.000000
vt 0.664516 0.000000
vt 0.651613 0.000000
vt 0.658065 0.000000
vt 0.645161 0.000000
vt 0.651613 0.000000
vt 0.638710 0.000000
vt 0.645161 0.000000
vt 0.632258 0.000000
vt 0.638710 0.000000
vt 0.625806 0.000000
vt 0.632258 0.000000
vt 0.619355 0.000000
vt 0.625806 0.000000
vt 0.612903 0.000000
vt 0.619355 0.000000
vt 0.606452 0.000000
vt 0.612903 0.000000
vt 0.600000 0.000000
vt 0.606452 0.000000
vt 0.593548 0.000000
vt 0.600000 0.000000
vt 0.587097 0.000000
vt 0.580645 0.000000
vt 0.580645 0.000000
vt 0.574194 0.000000
vt 0.561290 0.000000
vt 0.567742 0.000000
vt 0.554839 0.000000
vt 0.561290 0.000000
vt 0.548387 0.000000
vt 0.554839 0.000000
vt 0.541936 0.000000
vt 0.548387 0.000000
vt 0.522581 0.000000
vt 0.541936 0.000000
vt 0.509677 0.000000
vt 0.522581 0.000000
vt 0.483871 0.000000
vt 0.509677 0.000000
vt 0.232258 0.000000
vt 0.483871 0.000000
vt 0.225806 0.000000
vt 0.232258 0.000000
vt 0.219355 0.000000
vt 0.225806 0.000000
vt 0.212903 0.000000
vt 0.219355 0.000000
vt 0.206452 0.000000
vt 0.212903 0.000000
vt 0.200000 0.000000
vt 0.206452 0.000000
vt 0.193548 0.000000
vt 0.200000 0.000000
vt 0.187097 0.000000
vt 0.193548 0.000000
vt 0.180645 0.000000
vt 0.187097 0.000000
vt 0.174194 0.000000
vt 0.180645 0.000000
vt 0.167742 0.000000
vt 0.174194 0.000000
vt 0.161290 0.000000
vt 0.167742 0.000000
vt 0.154839 0.000000
vt 0.161290 0.000000
vt 0.141935 0.000000
vt 0.154839 0.000000
vt 0.129032 0.000000
vt 0.141935 0.000000
vt 0.116129 0.000000
vt 0.129032 0.000000
vt 0.109677 0.000000
vt 0.116129 0.000000
vt 0.103226 0.000000
vt 0.109677 0.000000
vt 0.096774 0.000000
vt 0.103226 0.000000
vt 0.090323 0.000000
vt 0.096774 0.000000
vt 0.083871 0.000000
vt 0.090323 0.000000
vt 0.077419 0.000000
vt 0.083871 0.000000
vt 0.070968 0.000000
vt 0.077419 0.000000
vt 0.064516 0.000000
vt 0.070968 0.000000
vt 0.058065 0.000000
vt 0.064516 0.000000
vt 0.051613 0.000000
vt 0.058065 0.000000
vt 0.045161 0.000000
vt 0.051613 0.000000
vt 0.038710 0.000000
vt 0.045161 0.000000
vt 0.032258 0.000000
vt 0.038710 0.000000
vt 0.025806 0.000000
vt 0.032258 0.000000
vt 0.019355 0.000000
vt 0.025806 0.000000
vt 0.012903 0.000000
vt 0.019355 0.000000
vt 0.012903 0.000000
vn -0.8454 0.5341 0.0000
vn -0.8152 0.5792 0.0000
vn 0.0000 0.0000 -1.0000
vn -0.9007 0.4344 0.0000
vn 0.0000 -0.0000 1.0000
vn -0.9498 0.3128 0.0000
vn -0.9694 0.2457 0.0000
vn -0.9498 0.3129 0.0000
vn -0.9858 0.1677 0.0000
vn -0.9969 0.0783 0.0000
vn -0.9997 -0.0224 -0.0000
vn -0.9911 -0.1333 -0.0000
vn -0.9679 -0.2513 -0.0000
vn -0.9284 -0.3716 -0.0000
vn -0.8726 -0.4884 -0.0000
vn -0.8031 -0.5959 -0.0000
vn -0.7243 -0.6895 -0.0000
vn -0.8031 -0.5958 -0.0000
vn -0.6419 -0.7668 -0.0000
vn -0.5568 -0.8306 -0.0000
vn -0.4646 -0.8855 -0.0000
vn -0.3657 -0.9307 -0.0000
vn -0.2635 -0.9647 -0.0000
vn -0.1615 -0.9869 -0.0000
vn -0.0633 -0.9980 -0.0000
vn 0.0290 -0.9996 -0.0000
vn 0.1136 -0.9935 -0.0000
vn 0.1900 -0.9818 -0.0000
vn 0.2579 -0.9662 -0.0000
vn 0.3180 -0.9481 -0.0000
vn 0.5447 -0.8386 -0.0000
vn 0.7232 -0.6906 -0.0000
vn 0.7363 -0.6766 -0.0000
vn 0.7504 -0.6610 0.0000
vn 0.8684 -0.4959 0.0000
vn 0.9658 -0.2592 0.0000
vn 0.9935 -0.1142 0.0000
vn 0.9974 0.0715 0.0000
vn 0.9569 0.2903 0.0000
vn 0.8578 0.5140 0.0000
vn 0.7098 0.7044 0.0000
vn 0.5440 0.8391 0.0000
vn 0.3890 0.9212 0.0000
vn 0.2582 0.9661 0.0000
vn 0.1526 0.9883 0.0000
vn 0.0686 0.9976 0.0000
vn 0.0108 0.9999 0.0000
vn -0.0211 0.9998 0.0000
vn -0.0468 0.9989 0.0000
vn -0.0744 0.9972 0.0000
vn -0.0982 0.9952 0.0000
vn -0.1208 0.9927 0.0000
vn -0.1471 0.9891 0.0000
vn -0.1781 0.9840 0.0000
vn -0.2148 0.9767 0.0000
vn -0.2569 0.9664 0.0000
vn -0.3016 0.9534 0.0000
vn -0.3478 0.9376 0.0000
vn -0.3965 0.9180 0.0000
vn -0.4477 0.8942 0.0000
vn -0.5007 0.8656 0.0000
vn -0.5551 0.8318 0.0000
vn -0.6100 0.7924 0.0000
vn -0.6646 0.7472 0.0000
vn -0.7178 0.6962 0.0000
vn -0.7683 0.6401 0.0000
vn -0.0001 0.0000 -1.0000
vn 0.0001 0.0000 -1.0000
vn 0.0001 0.0000 1.0000
usemtl Material.001
s 1
f 1/1/1 5/2/2 2/3/2
f 44/4/3 43/5/3 11/6/3
f 3/7/4 4/8/1 1/1/1
f 38/9/5 39/10/5 13/11/5
f 9/12/6 6/13/4 3/7/4
f 10/14/7 7/15/8 9/12/6
f 11/6/9 8/16/7 10/14/7
f 12/17/10 13/11/9 11/6/9
f 17/18/11 14/19/10 12/17/10
f 18/20/12 15/21/11 17/18/11
f 19/22/13 16/23/12 18/20/12
f 20/24/14 21/25/13 19/22/13
f 25/26/15 22/27/14 20/24/14
f 26/28/16 23/29/15 25/26/15
f 27/30/17 24/31/18 26/28/16
f 28/32/19 29/33/17 27/30/17
f 33/34/20 30/35/19 28/32/19
f 34/36/21 31/37/20 33/34/20
f 35/38/22 32/39/21 34/36/21
f 36/40/23 37/41/22 35/38/22
f 41/42/24 38/9/23 36/40/23
f 42/43/25 39/10/24 41/42/24
f 43/5/26 40/44/25 42/43/25
f 44/4/27 45/45/26 43/5/26
f 49/46/28 46/47/27 44/4/27
f 50/48/29 47/49/28 49/46/28
f 51/50/30 48/51/29 50/48/29
f 52/52/31 53/53/30 51/50/30
f 57/54/32 54/55/31 52/52/31
f 58/56/33 55/57/32 57/54/32
f 59/58/34 56/59/33 58/56/33
f 60/60/35 61/61/34 59/58/34
f 65/62/36 62/63/35 60/60/35
f 66/64/37 63/65/36 65/62/36
f 67/66/38 64/67/37 66/64/37
f 68/68/39 69/69/38 67/66/38
f 73/70/40 70/71/39 68/68/39
f 74/72/41 71/73/40 73/70/40
f 75/74/42 72/75/41 74/72/41
f 76/76/43 77/77/42 75/74/42
f 81/78/44 78/79/43 76/76/43
f 82/80/45 79/81/44 81/78/44
f 83/82/46 80/83/45 82/80/45
f 84/84/47 85/85/46 83/82/46
f 89/86/48 86/87/47 84/84/47
f 90/88/49 87/89/48 89/86/48
f 91/90/50 88/91/49 90/88/49
f 92/92/51 93/93/50 91/90/50
f 97/94/52 94/95/51 92/92/51
f 98/96/53 95/97/52 97/94/52
f 99/98/54 96/99/53 98/96/53
f 100/100/55 101/101/54 99/98/54
f 105/102/56 102/103/55 100/100/55
f 106/104/57 103/105/56 105/102/56
f 107/106/58 104/107/57 106/104/57
f 108/108/59 109/109/58 107/106/58
f 113/110/60 110/111/59 108/108/59
f 114/112/61 111/113/60 113/110/60
f 115/114/62 112/115/61 114/112/61
f 116/116/63 117/117/62 115/114/62
f 121/118/64 118/119/63 116/116/63
f 122/120/65 119/121/64 121/118/64
f 123/122/66 120/123/65 122/120/65
f 2/3/2 124/124/66 123/122/66
f 1/1/1 4/8/1 5/2/2
f 43/5/3 42/43/3 11/6/3
f 42/43/3 41/42/3 11/6/3
f 41/42/3 36/40/3 11/6/3
f 36/40/3 35/38/3 11/6/3
f 35/38/3 34/36/3 17/18/3
f 34/36/3 33/34/3 17/18/3
f 33/34/3 28/32/3 17/18/3
f 28/32/3 27/30/3 19/22/3
f 27/30/3 26/28/67 19/22/3
f 26/28/67 25/26/68 19/22/3
f 25/26/68 20/24/68 19/22/3
f 19/22/3 18/20/3 28/32/3
f 18/20/3 17/18/3 28/32/3
f 17/18/3 12/17/3 35/38/3
f 12/17/3 11/6/3 35/38/3
f 11/6/3 10/14/3 44/4/3
f 10/14/3 9/12/3 49/46/3
f 9/12/3 3/7/3 50/48/3
f 3/7/3 1/1/3 59/58/3
f 1/1/3 2/3/67 123/122/3
f 123/122/3 122/120/3 1/1/3
f 122/120/3 121/118/3 1/1/3
f 121/118/3 116/116/3 1/1/3
f 116/116/3 115/114/3 1/1/3
f 115/114/3 114/112/3 1/1/3
f 114/112/3 113/110/3 1/1/3
f 113/110/3 108/108/3 1/1/3
f 108/108/3 107/106/3 1/1/3
f 107/106/3 106/104/3 1/1/3
f 106/104/3 105/102/3 1/1/3
f 105/102/3 100/100/3 1/1/3
f 100/100/3 99/98/3 1/1/3
f 99/98/3 98/96/3 1/1/3
f 98/96/3 97/94/3 1/1/3
f 97/94/3 92/92/3 1/1/3
f 92/92/3 91/90/3 60/60/3
f 1/1/3 92/92/3 60/60/3
f 91/90/3 90/88/3 60/60/3
f 90/88/3 89/86/3 60/60/3
f 89/86/3 84/84/3 60/60/3
f 84/84/3 83/82/3 60/60/3
f 60/60/3 83/82/3 82/80/3
f 82/80/3 81/78/3 60/60/3
f 60/60/3 81/78/3 65/62/3
f 81/78/3 76/76/3 65/62/3
f 76/76/3 75/74/3 66/64/3
f 65/62/3 76/76/3 66/64/3
f 75/74/3 74/72/3 67/66/3
f 74/72/3 73/70/3 68/68/3
f 67/66/3 74/72/3 68/68/3
f 67/66/3 66/64/3 75/74/3
f 60/60/3 59/58/3 1/1/3
f 59/58/3 58/56/3 3/7/3
f 58/56/3 57/54/3 3/7/3
f 3/7/3 52/52/3 51/50/3
f 57/54/3 52/52/3 3/7/3
f 3/7/3 51/50/3 50/48/3
f 50/48/3 49/46/3 9/12/3
f 49/46/3 44/4/3 10/14/3
f 3/7/4 6/13/4 4/8/1
f 39/10/5 40/44/5 13/11/5
f 40/44/5 45/45/5 13/11/5
f 45/45/5 46/47/5 13/11/5
f 46/47/5 47/49/5 8/16/5
f 13/11/5 46/47/5 8/16/5
f 47/49/5 48/51/5 7/15/5
f 48/51/5 53/53/5 6/13/5
f 7/15/5 48/51/5 6/13/5
f 53/53/5 54/55/5 6/13/5
f 54/55/5 55/57/5 6/13/5
f 55/57/5 56/59/5 6/13/5
f 56/59/5 61/61/5 6/13/5
f 61/61/5 62/63/5 4/8/5
f 62/63/5 63/65/5 79/81/5
f 4/8/5 62/63/5 94/95/5
f 63/65/5 64/67/5 78/79/5
f 64/67/5 69/69/5 77/77/5
f 69/69/5 70/71/5 72/75/5
f 70/71/5 71/73/5 72/75/5
f 72/75/5 77/77/5 69/69/5
f 77/77/5 78/79/5 64/67/5
f 78/79/5 79/81/5 63/65/5
f 79/81/5 80/83/5 62/63/5
f 80/83/5 85/85/5 62/63/5
f 85/85/5 86/87/5 62/63/5
f 86/87/5 87/89/5 62/63/5
f 87/89/5 88/91/5 62/63/5
f 88/91/5 93/93/5 62/63/5
f 93/93/5 94/95/5 62/63/5
f 94/95/5 95/97/5 4/8/5
f 95/97/5 96/99/5 4/8/5
f 96/99/5 101/101/5 4/8/5
f 101/101/5 102/103/5 4/8/5
f 102/103/5 103/105/5 4/8/5
f 103/105/5 104/107/5 4/8/5
f 104/107/5 109/109/5 4/8/5
f 109/109/5 110/111/5 4/8/5
f 110/111/5 111/113/5 4/8/5
f 111/113/5 112/115/5 4/8/5
f 112/115/5 117/117/5 4/8/5
f 117/117/5 118/119/5 4/8/5
f 118/119/5 119/121/5 4/8/5
f 119/121/5 120/123/5 4/8/5
f 120/123/5 124/124/5 4/8/5
f 124/124/5 5/2/69 4/8/5
f 4/8/5 6/13/5 61/61/5
f 7/15/5 8/16/5 47/49/5
f 13/11/5 14/19/5 37/41/5
f 14/19/5 15/21/5 37/41/5
f 15/21/5 16/23/5 30/35/5
f 16/23/5 21/25/5 30/35/5
f 21/25/5 22/27/5 23/29/5
f 23/29/5 24/31/5 21/25/5
f 24/31/5 29/33/5 21/25/5
f 29/33/5 30/35/5 21/25/5
f 30/35/5 31/37/5 15/21/5
f 31/37/5 32/39/5 15/21/5
f 32/39/5 37/41/5 15/21/5
f 37/41/5 38/9/5 13/11/5
f 9/12/6 7/15/8 6/13/4
f 10/14/7 8/16/7 7/15/8
f 11/6/9 13/11/9 8/16/7
f 12/17/10 14/19/10 13/11/9
f 17/18/11 15/21/11 14/19/10
f 18/20/12 16/23/12 15/21/11
f 19/22/13 21/25/13 16/23/12
f 20/24/14 22/27/14 21/25/13
f 25/26/15 23/29/15 22/27/14
f 26/28/16 24/31/18 23/29/15
f 27/30/17 29/33/17 24/31/18
f 28/32/19 30/35/19 29/33/17
f 33/34/20 31/37/20 30/35/19
f 34/36/21 32/39/21 31/37/20
f 35/38/22 37/41/22 32/39/21
f 36/40/23 38/9/23 37/41/22
f 41/42/24 39/10/24 38/9/23
f 42/43/25 40/44/25 39/10/24
f 43/5/26 45/45/26 40/44/25
f 44/4/27 46/47/27 45/45/26
f 49/46/28 47/49/28 46/47/27
f 50/48/29 48/51/29 47/49/28
f 51/50/30 53/53/30 48/51/29
f 52/52/31 54/55/31 53/53/30
f 57/54/32 55/57/32 54/55/31
f 58/56/33 56/59/33 55/57/32
f 59/58/34 61/61/34 56/59/33
f 60/60/35 62/63/35 61/61/34
f 65/62/36 63/65/36 62/63/35
f 66/64/37 64/67/37 63/65/36
f 67/66/38 69/69/38 64/67/37
f 68/68/39 70/71/39 69/69/38
f 73/70/40 71/73/40 70/71/39
f 74/72/41 72/75/41 71/73/40
f 75/74/42 77/77/42 72/75/41
f 76/76/43 78/79/43 77/77/42
f 81/78/44 79/81/44 78/79/43
f 82/80/45 80/83/45 79/81/44
f 83/82/46 85/85/46 80/83/45
f 84/84/47 86/87/47 85/85/46
f 89/86/48 87/89/48 86/87/47
f 90/88/49 88/91/49 87/89/48
f 91/90/50 93/93/50 88/91/49
f 92/92/51 94/95/51 93/93/50
f 97/94/52 95/97/52 94/95/51
f 98/96/53 96/99/53 95/97/52
f 99/98/54 101/101/54 96/99/53
f 100/100/55 102/103/55 101/101/54
f 105/102/56 103/105/56 102/103/55
f 106/104/57 104/107/57 103/105/56
f 107/106/58 109/109/58 104/107/57
f 108/108/59 110/111/59 109/109/58
f 113/110/60 111/113/60 110/111/59
f 114/112/61 112/115/61 111/113/60
f 115/114/62 117/117/62 112/115/61
f 116/116/63 118/119/63 117/117/62
f 121/118/64 119/121/64 118/119/63
f 122/120/65 120/123/65 119/121/64
f 123/122/66 124/124/66 120/123/65
f 2/3/2 5/2/2 124/124/66
